<svg width="40" height="40" viewBox="0 0 40 40" fill="none" xmlns="http://www.w3.org/2000/svg">
<path d="M23.3332 11.6667H9.99992C9.55789 11.6667 9.13397 11.8423 8.82141 12.1548C8.50885 12.4674 8.33325 12.8913 8.33325 13.3333C8.33325 13.7753 8.50885 14.1993 8.82141 14.5118C9.13397 14.8244 9.55789 15 9.99992 15H23.3332C23.7753 15 24.1992 14.8244 24.5118 14.5118C24.8243 14.1993 24.9999 13.7753 24.9999 13.3333C24.9999 12.8913 24.8243 12.4674 24.5118 12.1548C24.1992 11.8423 23.7753 11.6667 23.3332 11.6667Z" fill="#F0CA43"/>
<path d="M23.3332 18.3333H9.99992C9.55789 18.3333 9.13397 18.5089 8.82141 18.8215C8.50885 19.1341 8.33325 19.558 8.33325 20C8.33325 20.442 8.50885 20.866 8.82141 21.1785C9.13397 21.4911 9.55789 21.6667 9.99992 21.6667H23.3332C23.7753 21.6667 24.1992 21.4911 24.5118 21.1785C24.8243 20.866 24.9999 20.442 24.9999 20C24.9999 19.558 24.8243 19.1341 24.5118 18.8215C24.1992 18.5089 23.7753 18.3333 23.3332 18.3333Z" fill="#F0CA43"/>
<path d="M16.6666 25H9.99992C9.55789 25 9.13397 25.1756 8.82141 25.4882C8.50885 25.8007 8.33325 26.2246 8.33325 26.6667C8.33325 27.1087 8.50885 27.5326 8.82141 27.8452C9.13397 28.1577 9.55789 28.3333 9.99992 28.3333H16.6666C17.1086 28.3333 17.5325 28.1577 17.8451 27.8452C18.1577 27.5326 18.3333 27.1087 18.3333 26.6667C18.3333 26.2246 18.1577 25.8007 17.8451 25.4882C17.5325 25.1756 17.1086 25 16.6666 25Z" fill="#F0CA43"/>
<path d="M36.6667 18.3333H31.6667V6.66666C31.6667 5.34057 31.14 4.0688 30.2023 3.13112C29.2646 2.19344 27.9928 1.66666 26.6667 1.66666H6.66675C5.34067 1.66666 4.0689 2.19344 3.13121 3.13112C2.19353 4.0688 1.66675 5.34057 1.66675 6.66666V33.3333C1.66675 34.6594 2.19353 35.9312 3.13121 36.8689C4.0689 37.8065 5.34067 38.3333 6.66675 38.3333H33.3334C34.6595 38.3333 35.9313 37.8065 36.8689 36.8689C37.8066 35.9312 38.3334 34.6594 38.3334 33.3333V20C38.3334 19.558 38.1578 19.134 37.8453 18.8215C37.5327 18.5089 37.1088 18.3333 36.6667 18.3333ZM28.3334 35H6.66675C6.22472 35 5.8008 34.8244 5.48824 34.5118C5.17568 34.1993 5.00008 33.7754 5.00008 33.3333V6.66666C5.00008 6.22463 5.17568 5.80071 5.48824 5.48815C5.8008 5.17558 6.22472 4.99999 6.66675 4.99999H26.6667C27.1088 4.99999 27.5327 5.17558 27.8453 5.48815C28.1578 5.80071 28.3334 6.22463 28.3334 6.66666V35ZM35.0001 33.3333C35.0001 33.7754 34.8245 34.1993 34.5119 34.5118C34.1994 34.8244 33.7754 35 33.3334 35H31.6667V21.6667H35.0001V33.3333Z" fill="#F0CA43"/>
</svg>
