<svg width="32" height="32" viewBox="0 0 32 32" fill="none" xmlns="http://www.w3.org/2000/svg">
<path d="M18.6667 9.33334H8.00008C7.64646 9.33334 7.30732 9.47382 7.05727 9.72387C6.80722 9.97392 6.66675 10.3131 6.66675 10.6667C6.66675 11.0203 6.80722 11.3594 7.05727 11.6095C7.30732 11.8595 7.64646 12 8.00008 12H18.6667C19.0204 12 19.3595 11.8595 19.6096 11.6095C19.8596 11.3594 20.0001 11.0203 20.0001 10.6667C20.0001 10.3131 19.8596 9.97392 19.6096 9.72387C19.3595 9.47382 19.0204 9.33334 18.6667 9.33334Z" fill="#428777"/>
<path d="M18.6667 14.6667H8.00008C7.64646 14.6667 7.30732 14.8071 7.05727 15.0572C6.80722 15.3072 6.66675 15.6464 6.66675 16C6.66675 16.3536 6.80722 16.6928 7.05727 16.9428C7.30732 17.1929 7.64646 17.3333 8.00008 17.3333H18.6667C19.0204 17.3333 19.3595 17.1929 19.6096 16.9428C19.8596 16.6928 20.0001 16.3536 20.0001 16C20.0001 15.6464 19.8596 15.3072 19.6096 15.0572C19.3595 14.8071 19.0204 14.6667 18.6667 14.6667Z" fill="#428777"/>
<path d="M13.3334 20H8.00008C7.64646 20 7.30732 20.1405 7.05727 20.3905C6.80722 20.6406 6.66675 20.9797 6.66675 21.3333C6.66675 21.687 6.80722 22.0261 7.05727 22.2762C7.30732 22.5262 7.64646 22.6667 8.00008 22.6667H13.3334C13.687 22.6667 14.0262 22.5262 14.2762 22.2762C14.5263 22.0261 14.6667 21.687 14.6667 21.3333C14.6667 20.9797 14.5263 20.6406 14.2762 20.3905C14.0262 20.1405 13.687 20 13.3334 20Z" fill="#428777"/>
<path d="M29.3333 14.6667H25.3333V5.33334C25.3333 4.27248 24.9118 3.25506 24.1617 2.50492C23.4115 1.75477 22.3941 1.33334 21.3333 1.33334H5.33325C4.27239 1.33334 3.25497 1.75477 2.50482 2.50492C1.75468 3.25506 1.33325 4.27248 1.33325 5.33334V26.6667C1.33325 27.7275 1.75468 28.745 2.50482 29.4951C3.25497 30.2453 4.27239 30.6667 5.33325 30.6667H26.6666C27.7275 30.6667 28.7449 30.2453 29.495 29.4951C30.2452 28.745 30.6666 27.7275 30.6666 26.6667V16C30.6666 15.6464 30.5261 15.3073 30.2761 15.0572C30.026 14.8072 29.6869 14.6667 29.3333 14.6667ZM22.6666 28H5.33325C4.97963 28 4.64049 27.8595 4.39044 27.6095C4.14039 27.3594 3.99992 27.0203 3.99992 26.6667V5.33334C3.99992 4.97972 4.14039 4.64058 4.39044 4.39053C4.64049 4.14049 4.97963 4.00001 5.33325 4.00001H21.3333C21.6869 4.00001 22.026 4.14049 22.2761 4.39053C22.5261 4.64058 22.6666 4.97972 22.6666 5.33334V28ZM27.9999 26.6667C27.9999 27.0203 27.8594 27.3594 27.6094 27.6095C27.3593 27.8595 27.0202 28 26.6666 28H25.3333V17.3333H27.9999V26.6667Z" fill="#428777"/>
</svg>
