<svg width="450" height="264" viewBox="0 0 450 264" fill="none" xmlns="http://www.w3.org/2000/svg">
<rect width="450" height="264" rx="24" fill="#428777"/>
<mask id="mask0_17_143" style="mask-type:alpha" maskUnits="userSpaceOnUse" x="0" y="0" width="450" height="264">
<rect width="450" height="264" rx="24" fill="#428777"/>
</mask>
<g mask="url(#mask0_17_143)">
<circle cx="418" cy="247" r="43.5" stroke="white" stroke-opacity="0.5"/>
<circle cx="418" cy="247" r="97.5" stroke="white" stroke-opacity="0.5"/>
<circle cx="418" cy="247" r="137.5" stroke="white" stroke-opacity="0.5"/>
</g>
<circle cx="365.5" cy="55.5" r="23.5" fill="white" fill-opacity="0.5"/>
<circle cx="394.5" cy="55.5" r="23.5" fill="white" fill-opacity="0.5"/>
<path d="M40.766 43.484C41.498 43.676 42.062 44.036 42.458 44.564C42.866 45.092 43.07 45.752 43.07 46.544C43.07 47.66 42.704 48.518 41.972 49.118C41.24 49.706 40.202 50 38.858 50H34.322C34.094 50 33.908 49.934 33.764 49.802C33.632 49.67 33.566 49.496 33.566 49.28V38.03C33.566 37.814 33.632 37.64 33.764 37.508C33.908 37.376 34.094 37.31 34.322 37.31H38.66C39.968 37.31 40.982 37.598 41.702 38.174C42.422 38.75 42.782 39.566 42.782 40.622C42.782 41.306 42.602 41.894 42.242 42.386C41.894 42.878 41.402 43.244 40.766 43.484ZM35.024 42.944H38.444C39.392 42.944 40.106 42.752 40.586 42.368C41.078 41.984 41.324 41.426 41.324 40.694C41.324 39.254 40.364 38.534 38.444 38.534H35.024V42.944ZM38.714 48.776C39.71 48.776 40.442 48.596 40.91 48.236C41.39 47.864 41.63 47.288 41.63 46.508C41.63 44.948 40.658 44.168 38.714 44.168H35.024V48.776H38.714ZM49.0609 41.018C51.2569 41.018 52.3549 42.17 52.3549 44.474V49.37C52.3549 49.586 52.2889 49.76 52.1569 49.892C52.0369 50.024 51.8689 50.09 51.6529 50.09C51.4369 50.09 51.2629 50.024 51.1309 49.892C50.9989 49.76 50.9329 49.586 50.9329 49.37V48.506C50.7049 49.022 50.3569 49.424 49.8889 49.712C49.4209 49.988 48.8809 50.126 48.2689 50.126C47.7049 50.126 47.1829 50.012 46.7029 49.784C46.2349 49.556 45.8629 49.238 45.5869 48.83C45.3109 48.422 45.1729 47.972 45.1729 47.48C45.1729 46.82 45.3409 46.31 45.6769 45.95C46.0129 45.578 46.5649 45.314 47.3329 45.158C48.1009 44.99 49.1689 44.906 50.5369 44.906H50.9329V44.312C50.9329 43.592 50.7829 43.064 50.4829 42.728C50.1949 42.392 49.7209 42.224 49.0609 42.224C48.2449 42.224 47.4169 42.446 46.5769 42.89C46.2529 43.094 46.0249 43.196 45.8929 43.196C45.7489 43.196 45.6289 43.142 45.5329 43.034C45.4369 42.926 45.3889 42.788 45.3889 42.62C45.3889 42.452 45.4369 42.308 45.5329 42.188C45.6409 42.056 45.8089 41.924 46.0369 41.792C46.4569 41.552 46.9309 41.366 47.4589 41.234C47.9989 41.09 48.5329 41.018 49.0609 41.018ZM48.4669 48.974C49.1869 48.974 49.7749 48.734 50.2309 48.254C50.6989 47.762 50.9329 47.132 50.9329 46.364V45.842H50.6089C49.5529 45.842 48.7489 45.89 48.1969 45.986C47.6449 46.07 47.2489 46.22 47.0089 46.436C46.7809 46.64 46.6669 46.946 46.6669 47.354C46.6669 47.822 46.8349 48.212 47.1709 48.524C47.5189 48.824 47.9509 48.974 48.4669 48.974ZM55.7618 50.09C55.5458 50.09 55.3658 50.03 55.2218 49.91C55.0898 49.778 55.0238 49.598 55.0238 49.37V37.94C55.0238 37.712 55.0898 37.538 55.2218 37.418C55.3658 37.286 55.5458 37.22 55.7618 37.22C55.9658 37.22 56.1338 37.286 56.2658 37.418C56.4098 37.538 56.4818 37.712 56.4818 37.94V49.37C56.4818 49.598 56.4098 49.778 56.2658 49.91C56.1338 50.03 55.9658 50.09 55.7618 50.09ZM62.7894 41.018C64.9854 41.018 66.0834 42.17 66.0834 44.474V49.37C66.0834 49.586 66.0174 49.76 65.8854 49.892C65.7654 50.024 65.5974 50.09 65.3814 50.09C65.1654 50.09 64.9914 50.024 64.8594 49.892C64.7274 49.76 64.6614 49.586 64.6614 49.37V48.506C64.4334 49.022 64.0854 49.424 63.6174 49.712C63.1494 49.988 62.6094 50.126 61.9974 50.126C61.4334 50.126 60.9114 50.012 60.4314 49.784C59.9634 49.556 59.5914 49.238 59.3154 48.83C59.0394 48.422 58.9014 47.972 58.9014 47.48C58.9014 46.82 59.0694 46.31 59.4054 45.95C59.7414 45.578 60.2934 45.314 61.0614 45.158C61.8294 44.99 62.8974 44.906 64.2654 44.906H64.6614V44.312C64.6614 43.592 64.5114 43.064 64.2114 42.728C63.9234 42.392 63.4494 42.224 62.7894 42.224C61.9734 42.224 61.1454 42.446 60.3054 42.89C59.9814 43.094 59.7534 43.196 59.6214 43.196C59.4774 43.196 59.3574 43.142 59.2614 43.034C59.1654 42.926 59.1174 42.788 59.1174 42.62C59.1174 42.452 59.1654 42.308 59.2614 42.188C59.3694 42.056 59.5374 41.924 59.7654 41.792C60.1854 41.552 60.6594 41.366 61.1874 41.234C61.7274 41.09 62.2614 41.018 62.7894 41.018ZM62.1954 48.974C62.9154 48.974 63.5034 48.734 63.9594 48.254C64.4274 47.762 64.6614 47.132 64.6614 46.364V45.842H64.3374C63.2814 45.842 62.4774 45.89 61.9254 45.986C61.3734 46.07 60.9774 46.22 60.7374 46.436C60.5094 46.64 60.3954 46.946 60.3954 47.354C60.3954 47.822 60.5634 48.212 60.8994 48.524C61.2474 48.824 61.6794 48.974 62.1954 48.974ZM73.1623 41.018C75.2623 41.018 76.3123 42.176 76.3123 44.492V49.37C76.3123 49.598 76.2463 49.778 76.1143 49.91C75.9943 50.03 75.8203 50.09 75.5923 50.09C75.3643 50.09 75.1843 50.03 75.0523 49.91C74.9203 49.778 74.8543 49.598 74.8543 49.37V44.582C74.8543 43.766 74.6923 43.172 74.3683 42.8C74.0563 42.428 73.5523 42.242 72.8563 42.242C72.0523 42.242 71.4103 42.488 70.9303 42.98C70.4503 43.472 70.2103 44.138 70.2103 44.978V49.37C70.2103 49.598 70.1443 49.778 70.0123 49.91C69.8923 50.03 69.7183 50.09 69.4903 50.09C69.2623 50.09 69.0823 50.03 68.9503 49.91C68.8183 49.778 68.7523 49.598 68.7523 49.37V41.774C68.7523 41.558 68.8183 41.384 68.9503 41.252C69.0823 41.12 69.2623 41.054 69.4903 41.054C69.7063 41.054 69.8743 41.12 69.9943 41.252C70.1263 41.384 70.1923 41.552 70.1923 41.756V42.674C70.4803 42.134 70.8823 41.726 71.3983 41.45C71.9143 41.162 72.5023 41.018 73.1623 41.018ZM82.6008 50.126C81.7848 50.126 81.0588 49.94 80.4228 49.568C79.7988 49.196 79.3128 48.668 78.9648 47.984C78.6288 47.3 78.4608 46.508 78.4608 45.608C78.4608 44.708 78.6348 43.91 78.9828 43.214C79.3428 42.518 79.8408 41.978 80.4768 41.594C81.1128 41.21 81.8448 41.018 82.6728 41.018C83.1288 41.018 83.5788 41.084 84.0228 41.216C84.4788 41.336 84.8748 41.516 85.2108 41.756C85.4268 41.9 85.5768 42.044 85.6608 42.188C85.7568 42.32 85.8048 42.47 85.8048 42.638C85.8048 42.806 85.7568 42.944 85.6608 43.052C85.5768 43.16 85.4628 43.214 85.3188 43.214C85.2348 43.214 85.1448 43.19 85.0488 43.142C84.9528 43.094 84.8688 43.046 84.7968 42.998C84.7368 42.95 84.6948 42.92 84.6708 42.908C84.3588 42.704 84.0588 42.542 83.7708 42.422C83.4948 42.302 83.1528 42.242 82.7448 42.242C81.8688 42.242 81.1848 42.542 80.6928 43.142C80.2128 43.73 79.9728 44.552 79.9728 45.608C79.9728 46.664 80.2128 47.48 80.6928 48.056C81.1848 48.632 81.8688 48.92 82.7448 48.92C83.1528 48.92 83.5008 48.86 83.7888 48.74C84.0888 48.62 84.3888 48.458 84.6888 48.254C84.8208 48.17 84.9468 48.098 85.0668 48.038C85.1868 47.978 85.2888 47.948 85.3728 47.948C85.5048 47.948 85.6128 48.002 85.6968 48.11C85.7928 48.218 85.8408 48.356 85.8408 48.524C85.8408 48.68 85.7988 48.824 85.7148 48.956C85.6308 49.076 85.4748 49.214 85.2468 49.37C84.9108 49.598 84.5028 49.784 84.0228 49.928C83.5548 50.06 83.0808 50.126 82.6008 50.126ZM94.3821 47.966C94.5141 47.966 94.6281 48.02 94.7241 48.128C94.8201 48.236 94.8681 48.374 94.8681 48.542C94.8681 48.842 94.6581 49.118 94.2381 49.37C93.8061 49.622 93.3501 49.814 92.8701 49.946C92.3901 50.066 91.9221 50.126 91.4661 50.126C90.1101 50.126 89.0361 49.724 88.2441 48.92C87.4641 48.116 87.0741 47.006 87.0741 45.59C87.0741 44.69 87.2481 43.898 87.5961 43.214C87.9441 42.518 88.4301 41.978 89.0541 41.594C89.6901 41.21 90.4101 41.018 91.2141 41.018C92.3541 41.018 93.2601 41.39 93.9321 42.134C94.6041 42.878 94.9401 43.886 94.9401 45.158C94.9401 45.398 94.8921 45.572 94.7961 45.68C94.7001 45.788 94.5441 45.842 94.3281 45.842H88.5321C88.6401 47.906 89.6181 48.938 91.4661 48.938C91.9341 48.938 92.3361 48.878 92.6721 48.758C93.0081 48.626 93.3681 48.452 93.7521 48.236C94.0641 48.056 94.2741 47.966 94.3821 47.966ZM91.2321 42.152C90.4641 42.152 89.8461 42.392 89.3781 42.872C88.9221 43.352 88.6521 44.03 88.5681 44.906H93.6621C93.6381 44.018 93.4161 43.34 92.9961 42.872C92.5761 42.392 91.9881 42.152 91.2321 42.152Z" fill="white"/>
<path d="M52.376 93.836C52.376 95.756 51.704 97.376 50.36 98.696C49.04 100.016 47.252 100.844 44.996 101.18V103.448C44.996 104 44.828 104.444 44.492 104.78C44.156 105.14 43.712 105.32 43.16 105.32C42.608 105.32 42.164 105.14 41.828 104.78C41.492 104.444 41.324 104 41.324 103.448V101.252C39.956 101.132 38.624 100.844 37.328 100.388C36.032 99.932 34.916 99.332 33.98 98.588C33.668 98.372 33.452 98.132 33.332 97.868C33.212 97.604 33.152 97.28 33.152 96.896C33.152 96.392 33.296 95.948 33.584 95.564C33.896 95.18 34.244 94.988 34.628 94.988C34.868 94.988 35.084 95.036 35.276 95.132C35.492 95.204 35.768 95.336 36.104 95.528C37.208 96.248 38.288 96.776 39.344 97.112C40.424 97.448 41.552 97.616 42.728 97.616C44.336 97.616 45.572 97.304 46.436 96.68C47.324 96.056 47.768 95.156 47.768 93.98C47.768 93.284 47.528 92.72 47.048 92.288C46.568 91.856 45.968 91.52 45.248 91.28C44.528 91.016 43.52 90.716 42.224 90.38C40.424 89.924 38.96 89.468 37.832 89.012C36.704 88.532 35.732 87.812 34.916 86.852C34.1 85.892 33.692 84.596 33.692 82.964C33.692 81.02 34.388 79.364 35.78 77.996C37.172 76.628 38.996 75.776 41.252 75.44V73.172C41.252 72.62 41.42 72.176 41.756 71.84C42.092 71.48 42.536 71.3 43.088 71.3C43.64 71.3 44.084 71.48 44.42 71.84C44.756 72.176 44.924 72.62 44.924 73.172V75.404C47.348 75.716 49.436 76.592 51.188 78.032C51.764 78.464 52.052 79.028 52.052 79.724C52.052 80.228 51.896 80.672 51.584 81.056C51.296 81.44 50.948 81.632 50.54 81.632C50.324 81.632 50.108 81.596 49.892 81.524C49.7 81.452 49.436 81.308 49.1 81.092C48.116 80.396 47.18 79.88 46.292 79.544C45.428 79.184 44.396 79.004 43.196 79.004C41.708 79.004 40.52 79.34 39.632 80.012C38.744 80.66 38.3 81.56 38.3 82.712C38.3 83.504 38.552 84.152 39.056 84.656C39.56 85.136 40.196 85.508 40.964 85.772C41.732 86.036 42.776 86.336 44.096 86.672C45.848 87.104 47.276 87.548 48.38 88.004C49.484 88.46 50.42 89.156 51.188 90.092C51.98 91.004 52.376 92.252 52.376 93.836ZM72.4859 92.432C73.2059 92.432 73.7459 92.588 74.1059 92.9C74.4659 93.212 74.6459 93.656 74.6459 94.232C74.6459 95.432 73.9259 96.032 72.4859 96.032H70.6499V98.876C70.6499 99.62 70.4339 100.196 70.0019 100.604C69.5939 101.012 69.0539 101.216 68.3819 101.216C67.7099 101.216 67.1579 101.012 66.7259 100.604C66.3179 100.196 66.1139 99.62 66.1139 98.876V96.032H56.6819C56.0339 96.032 55.5299 95.852 55.1699 95.492C54.8099 95.108 54.6299 94.64 54.6299 94.088C54.6299 93.512 54.8219 92.96 55.2059 92.432L66.3299 76.448C66.5699 76.112 66.8699 75.86 67.2299 75.692C67.5899 75.5 67.9619 75.404 68.3459 75.404C68.9699 75.404 69.5099 75.608 69.9659 76.016C70.4219 76.424 70.6499 77 70.6499 77.744V92.432H72.4859ZM59.4179 92.432H66.1139V82.748L59.4179 92.432ZM90.8319 87.968C92.3199 88.376 93.4599 89.12 94.2519 90.2C95.0679 91.28 95.4759 92.6 95.4759 94.16C95.4759 96.392 94.6359 98.144 92.9559 99.416C91.2759 100.664 88.9479 101.288 85.9719 101.288C82.9959 101.288 80.6679 100.664 78.9879 99.416C77.3079 98.144 76.4679 96.392 76.4679 94.16C76.4679 92.6 76.8759 91.28 77.6919 90.2C78.5079 89.096 79.6599 88.352 81.1479 87.968C79.8759 87.488 78.8799 86.744 78.1599 85.736C77.4399 84.704 77.0799 83.504 77.0799 82.136C77.0799 80.024 77.8719 78.356 79.4559 77.132C81.0399 75.908 83.2119 75.296 85.9719 75.296C88.7319 75.296 90.9039 75.908 92.4879 77.132C94.0719 78.356 94.8639 80.024 94.8639 82.136C94.8639 83.528 94.5039 84.74 93.7839 85.772C93.0639 86.804 92.0799 87.536 90.8319 87.968ZM85.9719 78.932C82.9719 78.932 81.4719 80.156 81.4719 82.604C81.4719 83.828 81.8439 84.764 82.5879 85.412C83.3559 86.036 84.4839 86.348 85.9719 86.348C87.4599 86.348 88.5759 86.036 89.3199 85.412C90.0879 84.764 90.4719 83.828 90.4719 82.604C90.4719 80.156 88.9719 78.932 85.9719 78.932ZM85.9719 97.652C89.4039 97.652 91.1199 96.368 91.1199 93.8C91.1199 91.232 89.4039 89.948 85.9719 89.948C82.5399 89.948 80.8239 91.232 80.8239 93.8C80.8239 96.368 82.5399 97.652 85.9719 97.652ZM114.794 97.256C116.234 97.256 116.954 97.868 116.954 99.092C116.954 100.364 116.234 101 114.794 101H102.626C101.162 101 100.43 100.364 100.43 99.092C100.43 97.868 101.162 97.256 102.626 97.256H106.37V80.84L102.914 82.964C102.578 83.156 102.278 83.252 102.014 83.252C101.51 83.252 101.078 83.036 100.718 82.604C100.382 82.172 100.214 81.692 100.214 81.164C100.214 80.468 100.526 79.928 101.15 79.544L106.73 76.088C107.45 75.656 108.134 75.44 108.782 75.44C109.454 75.44 109.994 75.644 110.402 76.052C110.81 76.46 111.014 77.024 111.014 77.744V97.256H114.794ZM136.38 97.256C137.82 97.256 138.54 97.868 138.54 99.092C138.54 100.364 137.82 101 136.38 101H124.212C122.748 101 122.016 100.364 122.016 99.092C122.016 97.868 122.748 97.256 124.212 97.256H127.956V80.84L124.5 82.964C124.164 83.156 123.864 83.252 123.6 83.252C123.096 83.252 122.664 83.036 122.304 82.604C121.968 82.172 121.8 81.692 121.8 81.164C121.8 80.468 122.112 79.928 122.736 79.544L128.316 76.088C129.036 75.656 129.72 75.44 130.368 75.44C131.04 75.44 131.58 75.644 131.988 76.052C132.396 76.46 132.6 77.024 132.6 77.744V97.256H136.38ZM144.322 95.816C145.138 95.816 145.798 96.116 146.302 96.716C146.806 97.316 147.058 98.192 147.058 99.344C147.058 101.624 146.266 103.592 144.682 105.248C144.37 105.56 144.034 105.716 143.674 105.716C143.314 105.716 143.002 105.596 142.738 105.356C142.474 105.116 142.342 104.828 142.342 104.492C142.342 104.204 142.462 103.928 142.702 103.664C143.422 102.896 143.89 102.032 144.106 101.072C143.41 101 142.834 100.736 142.378 100.28C141.946 99.8 141.73 99.212 141.73 98.516C141.73 97.748 141.97 97.112 142.45 96.608C142.954 96.08 143.578 95.816 144.322 95.816ZM166.787 97.256C168.227 97.256 168.947 97.868 168.947 99.092C168.947 100.364 168.227 101 166.787 101H153.107C152.483 101 151.991 100.82 151.631 100.46C151.271 100.076 151.091 99.608 151.091 99.056C151.091 98.336 151.367 97.688 151.919 97.112L160.127 88.292C161.135 87.188 161.867 86.18 162.323 85.268C162.803 84.332 163.043 83.408 163.043 82.496C163.043 81.368 162.719 80.504 162.071 79.904C161.423 79.304 160.499 79.004 159.299 79.004C158.315 79.004 157.355 79.196 156.419 79.58C155.507 79.94 154.583 80.444 153.647 81.092C153.407 81.26 153.167 81.404 152.927 81.524C152.687 81.62 152.447 81.668 152.207 81.668C151.799 81.668 151.439 81.476 151.127 81.092C150.839 80.708 150.695 80.252 150.695 79.724C150.695 79.364 150.755 79.052 150.875 78.788C151.019 78.524 151.235 78.272 151.523 78.032C152.579 77.192 153.815 76.532 155.231 76.052C156.647 75.548 158.063 75.296 159.479 75.296C161.951 75.296 163.919 75.92 165.383 77.168C166.871 78.416 167.615 80.096 167.615 82.208C167.615 83.672 167.303 85.052 166.679 86.348C166.055 87.62 164.999 89.048 163.511 90.632L157.283 97.256H166.787ZM188.516 97.256C189.956 97.256 190.676 97.868 190.676 99.092C190.676 100.364 189.956 101 188.516 101H176.348C174.884 101 174.152 100.364 174.152 99.092C174.152 97.868 174.884 97.256 176.348 97.256H180.092V80.84L176.636 82.964C176.3 83.156 176 83.252 175.736 83.252C175.232 83.252 174.8 83.036 174.44 82.604C174.104 82.172 173.936 81.692 173.936 81.164C173.936 80.468 174.248 79.928 174.872 79.544L180.452 76.088C181.172 75.656 181.856 75.44 182.504 75.44C183.176 75.44 183.716 75.644 184.124 76.052C184.532 76.46 184.736 77.024 184.736 77.744V97.256H188.516Z" fill="white"/>
<path d="M40.554 190.284C40.6193 190.125 40.7407 190.046 40.918 190.046C41.03 190.046 41.128 190.083 41.212 190.158C41.3053 190.223 41.352 190.307 41.352 190.41C41.352 190.466 41.338 190.522 41.31 190.578L37.236 199.762C37.1987 199.855 37.1333 199.93 37.04 199.986C36.956 200.042 36.8627 200.07 36.76 200.07C36.6667 200.07 36.5733 200.047 36.48 200C36.396 199.944 36.3307 199.865 36.284 199.762L32.224 190.578C32.196 190.522 32.182 190.471 32.182 190.424C32.182 190.312 32.224 190.223 32.308 190.158C32.4013 190.083 32.504 190.046 32.616 190.046C32.7933 190.046 32.9147 190.125 32.98 190.284L36.774 198.866L40.554 190.284ZM44.558 193.042C45.3793 193.042 45.9907 193.257 46.392 193.686C46.8027 194.115 47.008 194.764 47.008 195.632V199.622C47.008 199.753 46.9707 199.86 46.896 199.944C46.8213 200.019 46.7187 200.056 46.588 200.056C46.4573 200.056 46.3547 200.019 46.28 199.944C46.2053 199.86 46.168 199.753 46.168 199.622V198.782C45.972 199.202 45.6873 199.529 45.314 199.762C44.9407 199.986 44.5113 200.098 44.026 200.098C43.5873 200.098 43.186 200.009 42.822 199.832C42.4673 199.655 42.1827 199.412 41.968 199.104C41.7533 198.796 41.646 198.451 41.646 198.068C41.6367 197.555 41.7627 197.158 42.024 196.878C42.2853 196.589 42.7193 196.383 43.326 196.262C43.9327 196.141 44.782 196.08 45.874 196.08H46.168V195.562C46.168 194.946 46.042 194.498 45.79 194.218C45.538 193.929 45.1413 193.784 44.6 193.784C43.9093 193.784 43.2513 193.966 42.626 194.33C42.598 194.349 42.5233 194.4 42.402 194.484C42.29 194.559 42.192 194.596 42.108 194.596C42.0147 194.596 41.9353 194.563 41.87 194.498C41.814 194.423 41.786 194.335 41.786 194.232C41.786 194.027 41.9493 193.826 42.276 193.63C42.6027 193.443 42.9667 193.299 43.368 193.196C43.7693 193.093 44.166 193.042 44.558 193.042ZM44.096 199.356C44.7027 199.356 45.1973 199.151 45.58 198.74C45.972 198.329 46.168 197.807 46.168 197.172V196.71H45.902C45.006 196.71 44.32 196.747 43.844 196.822C43.368 196.897 43.032 197.027 42.836 197.214C42.64 197.391 42.542 197.653 42.542 197.998C42.542 198.39 42.6913 198.717 42.99 198.978C43.2887 199.23 43.6573 199.356 44.096 199.356ZM49.6731 200.07C49.5425 200.07 49.4351 200.033 49.3511 199.958C49.2765 199.883 49.2391 199.776 49.2391 199.636V190.494C49.2391 190.354 49.2765 190.247 49.3511 190.172C49.4351 190.097 49.5425 190.06 49.6731 190.06C49.7945 190.06 49.8925 190.097 49.9671 190.172C50.0511 190.247 50.0931 190.354 50.0931 190.494V199.636C50.0931 199.776 50.0511 199.883 49.9671 199.958C49.8925 200.033 49.7945 200.07 49.6731 200.07ZM52.7767 200.07C52.646 200.07 52.5387 200.033 52.4547 199.958C52.38 199.883 52.3427 199.776 52.3427 199.636V193.504C52.3427 193.364 52.38 193.257 52.4547 193.182C52.5387 193.107 52.646 193.07 52.7767 193.07C52.9073 193.07 53.01 193.107 53.0847 193.182C53.1593 193.257 53.1967 193.364 53.1967 193.504V199.636C53.1967 199.776 53.1593 199.883 53.0847 199.958C53.01 200.033 52.9073 200.07 52.7767 200.07ZM52.7767 191.488C52.59 191.488 52.436 191.432 52.3147 191.32C52.2027 191.208 52.1467 191.063 52.1467 190.886C52.1467 190.699 52.2027 190.55 52.3147 190.438C52.436 190.326 52.59 190.27 52.7767 190.27C52.9633 190.27 53.1127 190.326 53.2247 190.438C53.346 190.55 53.4067 190.699 53.4067 190.886C53.4067 191.063 53.346 191.208 53.2247 191.32C53.1127 191.432 52.9633 191.488 52.7767 191.488ZM60.7942 190.06C60.9248 190.06 61.0275 190.102 61.1022 190.186C61.1862 190.261 61.2282 190.363 61.2282 190.494V199.622C61.2282 199.753 61.1862 199.86 61.1022 199.944C61.0275 200.019 60.9248 200.056 60.7942 200.056C60.6635 200.056 60.5608 200.019 60.4862 199.944C60.4115 199.86 60.3742 199.753 60.3742 199.622V198.698C60.1688 199.155 59.8655 199.505 59.4642 199.748C59.0628 199.981 58.5868 200.098 58.0362 200.098C57.4388 200.098 56.9115 199.953 56.4542 199.664C55.9968 199.365 55.6422 198.95 55.3902 198.418C55.1382 197.877 55.0122 197.251 55.0122 196.542C55.0122 195.842 55.1382 195.231 55.3902 194.708C55.6422 194.176 55.9968 193.765 56.4542 193.476C56.9115 193.187 57.4388 193.042 58.0362 193.042C58.5868 193.042 59.0628 193.163 59.4642 193.406C59.8655 193.639 60.1688 193.985 60.3742 194.442V190.494C60.3742 190.363 60.4115 190.261 60.4862 190.186C60.5608 190.102 60.6635 190.06 60.7942 190.06ZM58.1482 199.342C58.8575 199.342 59.4035 199.104 59.7862 198.628C60.1782 198.143 60.3742 197.457 60.3742 196.57C60.3742 195.683 60.1828 194.997 59.8002 194.512C59.4175 194.027 58.8715 193.784 58.1622 193.784C57.4435 193.784 56.8882 194.027 56.4962 194.512C56.1042 194.988 55.9082 195.665 55.9082 196.542C55.9082 197.429 56.1042 198.119 56.4962 198.614C56.8882 199.099 57.4388 199.342 58.1482 199.342ZM70.0089 200.07C69.8782 200.07 69.7756 200.028 69.7009 199.944C69.6262 199.86 69.5889 199.753 69.5889 199.622V190.886H66.3549C66.2336 190.886 66.1356 190.853 66.0609 190.788C65.9956 190.723 65.9629 190.629 65.9629 190.508C65.9629 190.387 65.9956 190.293 66.0609 190.228C66.1356 190.163 66.2336 190.13 66.3549 190.13H73.6629C73.7749 190.13 73.8682 190.167 73.9429 190.242C74.0176 190.307 74.0549 190.396 74.0549 190.508C74.0549 190.62 74.0176 190.713 73.9429 190.788C73.8682 190.853 73.7749 190.886 73.6629 190.886H70.4429V199.622C70.4429 199.753 70.4009 199.86 70.3169 199.944C70.2422 200.028 70.1396 200.07 70.0089 200.07ZM79.255 193.042C80.8884 193.042 81.705 193.919 81.705 195.674V199.636C81.705 199.767 81.6677 199.874 81.593 199.958C81.5184 200.033 81.4157 200.07 81.285 200.07C81.1544 200.07 81.047 200.033 80.963 199.958C80.8884 199.874 80.851 199.767 80.851 199.636V195.73C80.851 195.058 80.7157 194.568 80.445 194.26C80.1744 193.952 79.745 193.798 79.157 193.798C78.485 193.798 77.9437 194.003 77.533 194.414C77.1317 194.825 76.931 195.375 76.931 196.066V199.636C76.931 199.767 76.8937 199.874 76.819 199.958C76.7444 200.033 76.6417 200.07 76.511 200.07C76.3804 200.07 76.273 200.033 76.189 199.958C76.1144 199.874 76.077 199.767 76.077 199.636V190.494C76.077 190.363 76.1144 190.261 76.189 190.186C76.273 190.102 76.3804 190.06 76.511 190.06C76.6417 190.06 76.7444 190.102 76.819 190.186C76.8937 190.261 76.931 190.363 76.931 190.494V194.344C77.1457 193.924 77.4537 193.602 77.855 193.378C78.2657 193.154 78.7324 193.042 79.255 193.042ZM87.0887 193.07C87.266 193.061 87.392 193.084 87.4667 193.14C87.5414 193.196 87.5787 193.289 87.5787 193.42C87.5787 193.653 87.4387 193.784 87.1587 193.812L86.7387 193.854C86.076 193.919 85.5814 194.157 85.2547 194.568C84.9374 194.979 84.7787 195.459 84.7787 196.01V199.636C84.7787 199.776 84.7414 199.883 84.6667 199.958C84.592 200.033 84.4894 200.07 84.3587 200.07C84.228 200.07 84.1207 200.033 84.0367 199.958C83.962 199.883 83.9247 199.776 83.9247 199.636V193.504C83.9247 193.364 83.962 193.257 84.0367 193.182C84.1207 193.107 84.228 193.07 84.3587 193.07C84.48 193.07 84.578 193.107 84.6527 193.182C84.7274 193.257 84.7647 193.359 84.7647 193.49V194.4C85.1474 193.597 85.8567 193.159 86.8927 193.084L87.0887 193.07ZM93.7368 193.07C93.8675 193.07 93.9702 193.112 94.0448 193.196C94.1288 193.271 94.1708 193.373 94.1708 193.504V199.636C94.1708 199.767 94.1288 199.874 94.0448 199.958C93.9702 200.033 93.8675 200.07 93.7368 200.07C93.6155 200.07 93.5175 200.033 93.4428 199.958C93.3682 199.874 93.3308 199.767 93.3308 199.636V198.782C93.1162 199.211 92.8082 199.538 92.4068 199.762C92.0148 199.986 91.5668 200.098 91.0628 200.098C90.2602 200.098 89.6535 199.879 89.2428 199.44C88.8415 198.992 88.6408 198.334 88.6408 197.466V193.504C88.6408 193.373 88.6782 193.271 88.7528 193.196C88.8368 193.112 88.9442 193.07 89.0748 193.07C89.2055 193.07 89.3082 193.112 89.3828 193.196C89.4575 193.271 89.4948 193.373 89.4948 193.504V197.41C89.4948 198.073 89.6255 198.563 89.8868 198.88C90.1575 199.188 90.5775 199.342 91.1468 199.342C91.8002 199.342 92.3228 199.137 92.7148 198.726C93.1162 198.306 93.3168 197.751 93.3168 197.06V193.504C93.3168 193.373 93.3542 193.271 93.4288 193.196C93.5035 193.112 93.6062 193.07 93.7368 193.07Z" fill="white"/>
<path d="M36.2 227.126C35.0333 227.126 34.142 226.697 33.526 225.838C32.91 224.97 32.602 223.71 32.602 222.058C32.602 220.415 32.91 219.165 33.526 218.306C34.142 217.438 35.0333 217.004 36.2 217.004C37.3667 217.004 38.258 217.438 38.874 218.306C39.49 219.165 39.798 220.415 39.798 222.058C39.798 223.701 39.49 224.956 38.874 225.824C38.258 226.692 37.3667 227.126 36.2 227.126ZM36.2 225.712C36.8347 225.712 37.2967 225.423 37.586 224.844C37.8753 224.256 38.02 223.327 38.02 222.058C38.02 220.779 37.8753 219.855 37.586 219.286C37.2967 218.707 36.8347 218.418 36.2 218.418C35.5653 218.418 35.1033 218.707 34.814 219.286C34.5247 219.865 34.38 220.789 34.38 222.058C34.38 223.327 34.5247 224.256 34.814 224.844C35.1033 225.423 35.5653 225.712 36.2 225.712ZM46.1065 221.932C46.6945 222.081 47.1425 222.366 47.4505 222.786C47.7679 223.197 47.9265 223.71 47.9265 224.326C47.9265 225.175 47.6139 225.852 46.9885 226.356C46.3632 226.86 45.5185 227.112 44.4545 227.112C43.8479 227.112 43.2645 227.019 42.7045 226.832C42.1445 226.645 41.6685 226.384 41.2765 226.048C41.0619 225.861 40.9545 225.642 40.9545 225.39C40.9545 225.185 41.0105 225.012 41.1225 224.872C41.2439 224.723 41.3839 224.648 41.5425 224.648C41.6359 224.648 41.7199 224.667 41.7945 224.704C41.8692 224.732 41.9719 224.783 42.1025 224.858C42.4945 225.119 42.8679 225.32 43.2225 225.46C43.5772 225.6 43.9645 225.67 44.3845 225.67C45.0005 225.67 45.4579 225.549 45.7565 225.306C46.0552 225.054 46.2045 224.676 46.2045 224.172C46.2045 223.677 46.0459 223.313 45.7285 223.08C45.4205 222.837 44.9399 222.716 44.2865 222.716H43.4885C43.2739 222.716 43.1059 222.646 42.9845 222.506C42.8725 222.357 42.8165 222.189 42.8165 222.002C42.8165 221.806 42.8725 221.638 42.9845 221.498C43.1059 221.358 43.2739 221.288 43.4885 221.288H44.0485C45.3272 221.288 45.9665 220.807 45.9665 219.846C45.9665 219.398 45.8312 219.053 45.5605 218.81C45.2899 218.567 44.9165 218.446 44.4405 218.446C43.7592 218.446 43.0312 218.717 42.2565 219.258C42.1259 219.333 42.0232 219.389 41.9485 219.426C41.8739 219.454 41.7899 219.468 41.6965 219.468C41.5379 219.468 41.3979 219.398 41.2765 219.258C41.1645 219.109 41.1085 218.931 41.1085 218.726C41.1085 218.586 41.1319 218.469 41.1785 218.376C41.2345 218.273 41.3185 218.171 41.4305 218.068C41.8225 217.741 42.2892 217.485 42.8305 217.298C43.3812 217.102 43.9412 217.004 44.5105 217.004C45.4812 217.004 46.2512 217.242 46.8205 217.718C47.3992 218.194 47.6885 218.829 47.6885 219.622C47.6792 220.163 47.5345 220.639 47.2545 221.05C46.9839 221.451 46.6012 221.745 46.1065 221.932ZM50.0211 227.476C49.9651 227.653 49.8764 227.784 49.7551 227.868C49.6337 227.952 49.4984 227.994 49.3491 227.994C49.1624 227.994 48.9944 227.929 48.8451 227.798C48.7051 227.677 48.6351 227.518 48.6351 227.322C48.6351 227.238 48.6491 227.154 48.6771 227.07L51.9251 216.892C51.9811 216.715 52.0697 216.584 52.1911 216.5C52.3124 216.416 52.4477 216.374 52.5971 216.374C52.7837 216.374 52.9471 216.439 53.0871 216.57C53.2364 216.691 53.3111 216.85 53.3111 217.046C53.3111 217.13 53.2971 217.214 53.2691 217.298L50.0211 227.476ZM60.1497 225.544C60.7097 225.544 60.9897 225.782 60.9897 226.258C60.9897 226.753 60.7097 227 60.1497 227H54.8297C54.5871 227 54.3957 226.93 54.2557 226.79C54.1157 226.641 54.0457 226.459 54.0457 226.244C54.0457 225.964 54.1531 225.712 54.3677 225.488L57.5597 222.058C57.9517 221.629 58.2364 221.237 58.4137 220.882C58.6004 220.518 58.6937 220.159 58.6937 219.804C58.6937 219.365 58.5677 219.029 58.3157 218.796C58.0637 218.563 57.7044 218.446 57.2377 218.446C56.8551 218.446 56.4817 218.521 56.1177 218.67C55.7631 218.81 55.4037 219.006 55.0397 219.258C54.9464 219.323 54.8531 219.379 54.7597 219.426C54.6664 219.463 54.5731 219.482 54.4797 219.482C54.3211 219.482 54.1811 219.407 54.0597 219.258C53.9477 219.109 53.8917 218.931 53.8917 218.726C53.8917 218.586 53.9151 218.465 53.9617 218.362C54.0177 218.259 54.1017 218.161 54.2137 218.068C54.6244 217.741 55.1051 217.485 55.6557 217.298C56.2064 217.102 56.7571 217.004 57.3077 217.004C58.2691 217.004 59.0344 217.247 59.6037 217.732C60.1824 218.217 60.4717 218.871 60.4717 219.692C60.4717 220.261 60.3504 220.798 60.1077 221.302C59.8651 221.797 59.4544 222.352 58.8757 222.968L56.4537 225.544H60.1497ZM68.5999 225.544C69.1599 225.544 69.4399 225.782 69.4399 226.258C69.4399 226.753 69.1599 227 68.5999 227H63.8679C63.2986 227 63.0139 226.753 63.0139 226.258C63.0139 225.782 63.2986 225.544 63.8679 225.544H65.3239V219.16L63.9799 219.986C63.8493 220.061 63.7326 220.098 63.6299 220.098C63.4339 220.098 63.2659 220.014 63.1259 219.846C62.9953 219.678 62.9299 219.491 62.9299 219.286C62.9299 219.015 63.0513 218.805 63.2939 218.656L65.4639 217.312C65.7439 217.144 66.0099 217.06 66.2619 217.06C66.5233 217.06 66.7333 217.139 66.8919 217.298C67.0506 217.457 67.1299 217.676 67.1299 217.956V225.544H68.5999Z" fill="white"/>
<path d="M251.716 212.416C251.14 212.416 250.6 212.278 250.096 212.002C249.592 211.714 249.19 211.33 248.89 210.85C248.602 210.358 248.458 209.818 248.458 209.23C248.458 208.678 248.596 208.156 248.872 207.664C249.16 207.172 249.55 206.776 250.042 206.476C250.546 206.176 251.104 206.026 251.716 206.026C252.292 206.026 252.826 206.17 253.318 206.458C253.822 206.734 254.224 207.118 254.524 207.61C254.824 208.09 254.974 208.63 254.974 209.23C254.974 209.806 254.824 210.34 254.524 210.832C254.236 211.312 253.84 211.696 253.336 211.984C252.844 212.272 252.304 212.416 251.716 212.416ZM261.155 212.416C260.579 212.416 260.039 212.278 259.535 212.002C259.031 211.714 258.629 211.33 258.329 210.85C258.041 210.358 257.897 209.818 257.897 209.23C257.897 208.678 258.035 208.156 258.311 207.664C258.599 207.172 258.989 206.776 259.481 206.476C259.985 206.176 260.543 206.026 261.155 206.026C261.731 206.026 262.265 206.17 262.757 206.458C263.261 206.734 263.663 207.118 263.963 207.61C264.263 208.09 264.413 208.63 264.413 209.23C264.413 209.806 264.263 210.34 263.963 210.832C263.675 211.312 263.279 211.696 262.775 211.984C262.283 212.272 261.743 212.416 261.155 212.416ZM270.595 212.416C270.019 212.416 269.479 212.278 268.975 212.002C268.471 211.714 268.069 211.33 267.769 210.85C267.481 210.358 267.337 209.818 267.337 209.23C267.337 208.678 267.475 208.156 267.751 207.664C268.039 207.172 268.429 206.776 268.921 206.476C269.425 206.176 269.983 206.026 270.595 206.026C271.171 206.026 271.705 206.17 272.197 206.458C272.701 206.734 273.103 207.118 273.403 207.61C273.703 208.09 273.853 208.63 273.853 209.23C273.853 209.806 273.703 210.34 273.403 210.832C273.115 211.312 272.719 211.696 272.215 211.984C271.723 212.272 271.183 212.416 270.595 212.416ZM280.034 212.416C279.458 212.416 278.918 212.278 278.414 212.002C277.91 211.714 277.508 211.33 277.208 210.85C276.92 210.358 276.776 209.818 276.776 209.23C276.776 208.678 276.914 208.156 277.19 207.664C277.478 207.172 277.868 206.776 278.36 206.476C278.864 206.176 279.422 206.026 280.034 206.026C280.61 206.026 281.144 206.17 281.636 206.458C282.14 206.734 282.542 207.118 282.842 207.61C283.142 208.09 283.292 208.63 283.292 209.23C283.292 209.806 283.142 210.34 282.842 210.832C282.554 211.312 282.158 211.696 281.654 211.984C281.162 212.272 280.622 212.416 280.034 212.416ZM294.114 212.416C293.538 212.416 292.998 212.278 292.494 212.002C291.99 211.714 291.588 211.33 291.288 210.85C291 210.358 290.856 209.818 290.856 209.23C290.856 208.678 290.994 208.156 291.27 207.664C291.558 207.172 291.948 206.776 292.44 206.476C292.944 206.176 293.502 206.026 294.114 206.026C294.69 206.026 295.224 206.17 295.716 206.458C296.22 206.734 296.622 207.118 296.922 207.61C297.222 208.09 297.372 208.63 297.372 209.23C297.372 209.806 297.222 210.34 296.922 210.832C296.634 211.312 296.238 211.696 295.734 211.984C295.242 212.272 294.702 212.416 294.114 212.416ZM303.554 212.416C302.978 212.416 302.438 212.278 301.934 212.002C301.43 211.714 301.028 211.33 300.728 210.85C300.44 210.358 300.296 209.818 300.296 209.23C300.296 208.678 300.434 208.156 300.71 207.664C300.998 207.172 301.388 206.776 301.88 206.476C302.384 206.176 302.942 206.026 303.554 206.026C304.13 206.026 304.664 206.17 305.156 206.458C305.66 206.734 306.062 207.118 306.362 207.61C306.662 208.09 306.812 208.63 306.812 209.23C306.812 209.806 306.662 210.34 306.362 210.832C306.074 211.312 305.678 211.696 305.174 211.984C304.682 212.272 304.142 212.416 303.554 212.416ZM312.993 212.416C312.417 212.416 311.877 212.278 311.373 212.002C310.869 211.714 310.467 211.33 310.167 210.85C309.879 210.358 309.735 209.818 309.735 209.23C309.735 208.678 309.873 208.156 310.149 207.664C310.437 207.172 310.827 206.776 311.319 206.476C311.823 206.176 312.381 206.026 312.993 206.026C313.569 206.026 314.103 206.17 314.595 206.458C315.099 206.734 315.501 207.118 315.801 207.61C316.101 208.09 316.251 208.63 316.251 209.23C316.251 209.806 316.101 210.34 315.801 210.832C315.513 211.312 315.117 211.696 314.613 211.984C314.121 212.272 313.581 212.416 312.993 212.416ZM322.433 212.416C321.857 212.416 321.317 212.278 320.813 212.002C320.309 211.714 319.907 211.33 319.607 210.85C319.319 210.358 319.175 209.818 319.175 209.23C319.175 208.678 319.313 208.156 319.589 207.664C319.877 207.172 320.267 206.776 320.759 206.476C321.263 206.176 321.821 206.026 322.433 206.026C323.009 206.026 323.543 206.17 324.035 206.458C324.539 206.734 324.941 207.118 325.241 207.61C325.541 208.09 325.691 208.63 325.691 209.23C325.691 209.806 325.541 210.34 325.241 210.832C324.953 211.312 324.557 211.696 324.053 211.984C323.561 212.272 323.021 212.416 322.433 212.416ZM336.513 212.416C335.937 212.416 335.397 212.278 334.893 212.002C334.389 211.714 333.987 211.33 333.687 210.85C333.399 210.358 333.255 209.818 333.255 209.23C333.255 208.678 333.393 208.156 333.669 207.664C333.957 207.172 334.347 206.776 334.839 206.476C335.343 206.176 335.901 206.026 336.513 206.026C337.089 206.026 337.623 206.17 338.115 206.458C338.619 206.734 339.021 207.118 339.321 207.61C339.621 208.09 339.771 208.63 339.771 209.23C339.771 209.806 339.621 210.34 339.321 210.832C339.033 211.312 338.637 211.696 338.133 211.984C337.641 212.272 337.101 212.416 336.513 212.416ZM345.952 212.416C345.376 212.416 344.836 212.278 344.332 212.002C343.828 211.714 343.426 211.33 343.126 210.85C342.838 210.358 342.694 209.818 342.694 209.23C342.694 208.678 342.832 208.156 343.108 207.664C343.396 207.172 343.786 206.776 344.278 206.476C344.782 206.176 345.34 206.026 345.952 206.026C346.528 206.026 347.062 206.17 347.554 206.458C348.058 206.734 348.46 207.118 348.76 207.61C349.06 208.09 349.21 208.63 349.21 209.23C349.21 209.806 349.06 210.34 348.76 210.832C348.472 211.312 348.076 211.696 347.572 211.984C347.08 212.272 346.54 212.416 345.952 212.416ZM355.392 212.416C354.816 212.416 354.276 212.278 353.772 212.002C353.268 211.714 352.866 211.33 352.566 210.85C352.278 210.358 352.134 209.818 352.134 209.23C352.134 208.678 352.272 208.156 352.548 207.664C352.836 207.172 353.226 206.776 353.718 206.476C354.222 206.176 354.78 206.026 355.392 206.026C355.968 206.026 356.502 206.17 356.994 206.458C357.498 206.734 357.9 207.118 358.2 207.61C358.5 208.09 358.65 208.63 358.65 209.23C358.65 209.806 358.5 210.34 358.2 210.832C357.912 211.312 357.516 211.696 357.012 211.984C356.52 212.272 355.98 212.416 355.392 212.416ZM364.831 212.416C364.255 212.416 363.715 212.278 363.211 212.002C362.707 211.714 362.305 211.33 362.005 210.85C361.717 210.358 361.573 209.818 361.573 209.23C361.573 208.678 361.711 208.156 361.987 207.664C362.275 207.172 362.665 206.776 363.157 206.476C363.661 206.176 364.219 206.026 364.831 206.026C365.407 206.026 365.941 206.17 366.433 206.458C366.937 206.734 367.339 207.118 367.639 207.61C367.939 208.09 368.089 208.63 368.089 209.23C368.089 209.806 367.939 210.34 367.639 210.832C367.351 211.312 366.955 211.696 366.451 211.984C365.959 212.272 365.419 212.416 364.831 212.416ZM383.051 212.758C383.267 212.758 383.435 212.812 383.555 212.92C383.675 213.028 383.735 213.178 383.735 213.37C383.735 213.574 383.675 213.73 383.555 213.838C383.447 213.946 383.279 214 383.051 214H377.093C376.865 214 376.691 213.946 376.571 213.838C376.463 213.73 376.409 213.574 376.409 213.37C376.409 213.178 376.469 213.028 376.589 212.92C376.709 212.812 376.877 212.758 377.093 212.758H379.325V203.11L377.363 204.388C377.267 204.448 377.171 204.478 377.075 204.478C376.907 204.478 376.757 204.4 376.625 204.244C376.505 204.088 376.445 203.92 376.445 203.74C376.445 203.488 376.541 203.308 376.733 203.2L379.469 201.418C379.673 201.286 379.883 201.22 380.099 201.22C380.303 201.22 380.471 201.286 380.603 201.418C380.735 201.55 380.801 201.736 380.801 201.976V212.758H383.051ZM394.132 212.758C394.348 212.758 394.516 212.812 394.636 212.92C394.756 213.028 394.816 213.178 394.816 213.37C394.816 213.79 394.588 214 394.132 214H387.076C386.872 214 386.704 213.94 386.572 213.82C386.44 213.688 386.374 213.532 386.374 213.352C386.374 213.124 386.458 212.926 386.626 212.758L390.964 207.988C391.564 207.316 391.996 206.716 392.26 206.188C392.536 205.648 392.674 205.108 392.674 204.568C392.674 203.872 392.47 203.338 392.062 202.966C391.666 202.594 391.102 202.408 390.37 202.408C389.794 202.408 389.242 202.516 388.714 202.732C388.186 202.936 387.658 203.254 387.13 203.686C386.95 203.83 386.782 203.902 386.626 203.902C386.494 203.902 386.38 203.842 386.284 203.722C386.188 203.59 386.14 203.434 386.14 203.254C386.14 203.002 386.236 202.798 386.428 202.642C386.92 202.186 387.52 201.826 388.228 201.562C388.936 201.298 389.662 201.166 390.406 201.166C391.546 201.166 392.452 201.466 393.124 202.066C393.808 202.666 394.15 203.476 394.15 204.496C394.15 205.228 393.982 205.93 393.646 206.602C393.322 207.274 392.782 208.024 392.026 208.852L388.426 212.758H394.132ZM402.873 207.484C403.641 207.7 404.223 208.072 404.619 208.6C405.027 209.128 405.231 209.782 405.231 210.562C405.231 211.666 404.859 212.536 404.115 213.172C403.371 213.808 402.357 214.126 401.073 214.126C400.293 214.126 399.543 213.994 398.823 213.73C398.115 213.466 397.515 213.106 397.023 212.65C396.831 212.47 396.735 212.266 396.735 212.038C396.735 211.858 396.783 211.708 396.879 211.588C396.975 211.468 397.089 211.408 397.221 211.408C397.389 211.408 397.557 211.474 397.725 211.606C398.277 212.05 398.817 212.374 399.345 212.578C399.873 212.782 400.443 212.884 401.055 212.884C401.943 212.884 402.615 212.68 403.071 212.272C403.539 211.864 403.773 211.276 403.773 210.508C403.773 208.96 402.801 208.186 400.857 208.186H399.903C399.711 208.186 399.555 208.126 399.435 208.006C399.327 207.874 399.273 207.724 399.273 207.556C399.273 207.388 399.327 207.244 399.435 207.124C399.555 207.004 399.711 206.944 399.903 206.944H400.569C401.505 206.944 402.225 206.74 402.729 206.332C403.233 205.912 403.485 205.312 403.485 204.532C403.485 203.848 403.281 203.326 402.873 202.966C402.465 202.594 401.889 202.408 401.145 202.408C400.581 202.408 400.035 202.516 399.507 202.732C398.979 202.936 398.451 203.254 397.923 203.686C397.755 203.818 397.587 203.884 397.419 203.884C397.287 203.884 397.173 203.824 397.077 203.704C396.981 203.584 396.933 203.434 396.933 203.254C396.933 203.026 397.029 202.822 397.221 202.642C397.713 202.186 398.307 201.826 399.003 201.562C399.711 201.298 400.437 201.166 401.181 201.166C402.333 201.166 403.251 201.46 403.935 202.048C404.619 202.636 404.955 203.428 404.943 204.424C404.931 205.144 404.739 205.774 404.367 206.314C404.007 206.854 403.509 207.244 402.873 207.484ZM416.168 210.022C416.384 210.022 416.552 210.082 416.672 210.202C416.792 210.31 416.852 210.454 416.852 210.634C416.852 211.042 416.624 211.246 416.168 211.246H414.818V213.334C414.818 213.574 414.746 213.76 414.602 213.892C414.47 214.024 414.296 214.09 414.08 214.09C413.864 214.09 413.69 214.024 413.558 213.892C413.426 213.76 413.36 213.574 413.36 213.334V211.246H408.032C407.816 211.246 407.648 211.186 407.528 211.066C407.408 210.946 407.348 210.796 407.348 210.616C407.348 210.448 407.414 210.262 407.546 210.058L413.432 201.544C413.6 201.328 413.816 201.22 414.08 201.22C414.284 201.22 414.458 201.286 414.602 201.418C414.746 201.55 414.818 201.736 414.818 201.976V210.022H416.168ZM409.022 210.022H413.36V203.776L409.022 210.022Z" fill="white"/>
</svg>
