<svg width="375" height="220" viewBox="0 0 375 220" fill="none" xmlns="http://www.w3.org/2000/svg">
<rect width="375" height="220" rx="24" fill="#F0CA43"/>
<mask id="mask0_17_244" style="mask-type:alpha" maskUnits="userSpaceOnUse" x="0" y="0" width="375" height="220">
<rect width="375" height="220" rx="24" transform="matrix(-1 0 0 1 375 0)" fill="#428777"/>
</mask>
<g mask="url(#mask0_17_244)">
<circle r="36.1666" transform="matrix(-1 0 0 1 26.681 205.833)" stroke="white" stroke-opacity="0.5"/>
<circle r="81.1667" transform="matrix(-1 0 0 1 26.6576 205.833)" stroke="white" stroke-opacity="0.5"/>
<circle r="114.5" transform="matrix(-1 0 0 1 26.6639 205.834)" stroke="white" stroke-opacity="0.5"/>
</g>
<circle cx="304.578" cy="46.2498" r="19.5833" fill="white" fill-opacity="0.5"/>
<circle cx="328.751" cy="46.25" r="19.5833" fill="white" fill-opacity="0.5"/>
<path d="M35.4379 38.1505C36.1699 38.3425 36.7339 38.7025 37.1299 39.2305C37.5379 39.7585 37.7419 40.4185 37.7419 41.2105C37.7419 42.3265 37.3759 43.1845 36.6439 43.7845C35.9119 44.3725 34.8739 44.6665 33.5299 44.6665H28.9939C28.7659 44.6665 28.5799 44.6005 28.4359 44.4685C28.3039 44.3365 28.2379 44.1625 28.2379 43.9465V32.6965C28.2379 32.4805 28.3039 32.3065 28.4359 32.1745C28.5799 32.0425 28.7659 31.9765 28.9939 31.9765H33.3319C34.6399 31.9765 35.6539 32.2645 36.3739 32.8405C37.0939 33.4165 37.4539 34.2325 37.4539 35.2885C37.4539 35.9725 37.2739 36.5605 36.9139 37.0525C36.5659 37.5445 36.0739 37.9105 35.4379 38.1505ZM29.6959 37.6105H33.1159C34.0639 37.6105 34.7779 37.4185 35.2579 37.0345C35.7499 36.6505 35.9959 36.0925 35.9959 35.3605C35.9959 33.9205 35.0359 33.2005 33.1159 33.2005H29.6959V37.6105ZM33.3859 43.4425C34.3819 43.4425 35.1139 43.2625 35.5819 42.9025C36.0619 42.5305 36.3019 41.9545 36.3019 41.1745C36.3019 39.6145 35.3299 38.8345 33.3859 38.8345H29.6959V43.4425H33.3859ZM43.7328 35.6845C45.9288 35.6845 47.0268 36.8365 47.0268 39.1405V44.0365C47.0268 44.2525 46.9608 44.4265 46.8288 44.5585C46.7088 44.6905 46.5408 44.7565 46.3248 44.7565C46.1088 44.7565 45.9348 44.6905 45.8028 44.5585C45.6708 44.4265 45.6048 44.2525 45.6048 44.0365V43.1725C45.3768 43.6885 45.0288 44.0905 44.5608 44.3785C44.0928 44.6545 43.5528 44.7925 42.9408 44.7925C42.3768 44.7925 41.8548 44.6785 41.3748 44.4505C40.9068 44.2225 40.5348 43.9045 40.2588 43.4965C39.9828 43.0885 39.8448 42.6385 39.8448 42.1465C39.8448 41.4865 40.0128 40.9765 40.3488 40.6165C40.6848 40.2445 41.2368 39.9805 42.0048 39.8245C42.7728 39.6565 43.8408 39.5725 45.2088 39.5725H45.6048V38.9785C45.6048 38.2585 45.4548 37.7305 45.1548 37.3945C44.8668 37.0585 44.3928 36.8905 43.7328 36.8905C42.9168 36.8905 42.0888 37.1125 41.2488 37.5565C40.9248 37.7605 40.6968 37.8625 40.5648 37.8625C40.4208 37.8625 40.3008 37.8085 40.2048 37.7005C40.1088 37.5925 40.0608 37.4545 40.0608 37.2865C40.0608 37.1185 40.1088 36.9745 40.2048 36.8545C40.3128 36.7225 40.4808 36.5905 40.7088 36.4585C41.1288 36.2185 41.6028 36.0325 42.1308 35.9005C42.6708 35.7565 43.2048 35.6845 43.7328 35.6845ZM43.1388 43.6405C43.8588 43.6405 44.4468 43.4005 44.9028 42.9205C45.3708 42.4285 45.6048 41.7985 45.6048 41.0305V40.5085H45.2808C44.2248 40.5085 43.4208 40.5565 42.8688 40.6525C42.3168 40.7365 41.9208 40.8865 41.6808 41.1025C41.4528 41.3065 41.3388 41.6125 41.3388 42.0205C41.3388 42.4885 41.5068 42.8785 41.8428 43.1905C42.1908 43.4905 42.6228 43.6405 43.1388 43.6405ZM50.4337 44.7565C50.2177 44.7565 50.0377 44.6965 49.8937 44.5765C49.7617 44.4445 49.6957 44.2645 49.6957 44.0365V32.6065C49.6957 32.3785 49.7617 32.2045 49.8937 32.0845C50.0377 31.9525 50.2177 31.8865 50.4337 31.8865C50.6377 31.8865 50.8057 31.9525 50.9377 32.0845C51.0817 32.2045 51.1537 32.3785 51.1537 32.6065V44.0365C51.1537 44.2645 51.0817 44.4445 50.9377 44.5765C50.8057 44.6965 50.6377 44.7565 50.4337 44.7565ZM57.4613 35.6845C59.6573 35.6845 60.7553 36.8365 60.7553 39.1405V44.0365C60.7553 44.2525 60.6893 44.4265 60.5573 44.5585C60.4373 44.6905 60.2693 44.7565 60.0533 44.7565C59.8373 44.7565 59.6633 44.6905 59.5313 44.5585C59.3993 44.4265 59.3333 44.2525 59.3333 44.0365V43.1725C59.1053 43.6885 58.7573 44.0905 58.2893 44.3785C57.8213 44.6545 57.2813 44.7925 56.6693 44.7925C56.1053 44.7925 55.5833 44.6785 55.1033 44.4505C54.6353 44.2225 54.2633 43.9045 53.9873 43.4965C53.7113 43.0885 53.5733 42.6385 53.5733 42.1465C53.5733 41.4865 53.7413 40.9765 54.0773 40.6165C54.4133 40.2445 54.9653 39.9805 55.7333 39.8245C56.5013 39.6565 57.5693 39.5725 58.9373 39.5725H59.3333V38.9785C59.3333 38.2585 59.1833 37.7305 58.8833 37.3945C58.5953 37.0585 58.1213 36.8905 57.4613 36.8905C56.6453 36.8905 55.8173 37.1125 54.9773 37.5565C54.6533 37.7605 54.4253 37.8625 54.2933 37.8625C54.1493 37.8625 54.0293 37.8085 53.9333 37.7005C53.8373 37.5925 53.7893 37.4545 53.7893 37.2865C53.7893 37.1185 53.8373 36.9745 53.9333 36.8545C54.0413 36.7225 54.2093 36.5905 54.4373 36.4585C54.8573 36.2185 55.3313 36.0325 55.8593 35.9005C56.3993 35.7565 56.9333 35.6845 57.4613 35.6845ZM56.8673 43.6405C57.5873 43.6405 58.1753 43.4005 58.6313 42.9205C59.0993 42.4285 59.3333 41.7985 59.3333 41.0305V40.5085H59.0093C57.9533 40.5085 57.1493 40.5565 56.5973 40.6525C56.0453 40.7365 55.6493 40.8865 55.4093 41.1025C55.1813 41.3065 55.0673 41.6125 55.0673 42.0205C55.0673 42.4885 55.2353 42.8785 55.5713 43.1905C55.9193 43.4905 56.3513 43.6405 56.8673 43.6405ZM67.8342 35.6845C69.9342 35.6845 70.9842 36.8425 70.9842 39.1585V44.0365C70.9842 44.2645 70.9182 44.4445 70.7862 44.5765C70.6662 44.6965 70.4922 44.7565 70.2642 44.7565C70.0362 44.7565 69.8562 44.6965 69.7242 44.5765C69.5922 44.4445 69.5262 44.2645 69.5262 44.0365V39.2485C69.5262 38.4325 69.3642 37.8385 69.0402 37.4665C68.7282 37.0945 68.2242 36.9085 67.5282 36.9085C66.7242 36.9085 66.0822 37.1545 65.6022 37.6465C65.1222 38.1385 64.8822 38.8045 64.8822 39.6445V44.0365C64.8822 44.2645 64.8162 44.4445 64.6842 44.5765C64.5642 44.6965 64.3902 44.7565 64.1622 44.7565C63.9342 44.7565 63.7542 44.6965 63.6222 44.5765C63.4902 44.4445 63.4242 44.2645 63.4242 44.0365V36.4405C63.4242 36.2245 63.4902 36.0505 63.6222 35.9185C63.7542 35.7865 63.9342 35.7205 64.1622 35.7205C64.3782 35.7205 64.5462 35.7865 64.6662 35.9185C64.7982 36.0505 64.8642 36.2185 64.8642 36.4225V37.3405C65.1522 36.8005 65.5542 36.3925 66.0702 36.1165C66.5862 35.8285 67.1742 35.6845 67.8342 35.6845ZM77.2727 44.7925C76.4567 44.7925 75.7307 44.6065 75.0947 44.2345C74.4707 43.8625 73.9847 43.3345 73.6367 42.6505C73.3007 41.9665 73.1327 41.1745 73.1327 40.2745C73.1327 39.3745 73.3067 38.5765 73.6547 37.8805C74.0147 37.1845 74.5127 36.6445 75.1487 36.2605C75.7847 35.8765 76.5167 35.6845 77.3447 35.6845C77.8007 35.6845 78.2507 35.7505 78.6947 35.8825C79.1507 36.0025 79.5467 36.1825 79.8827 36.4225C80.0987 36.5665 80.2487 36.7105 80.3327 36.8545C80.4287 36.9865 80.4767 37.1365 80.4767 37.3045C80.4767 37.4725 80.4287 37.6105 80.3327 37.7185C80.2487 37.8265 80.1347 37.8805 79.9907 37.8805C79.9067 37.8805 79.8167 37.8565 79.7207 37.8085C79.6247 37.7605 79.5407 37.7125 79.4687 37.6645C79.4087 37.6165 79.3667 37.5865 79.3427 37.5745C79.0307 37.3705 78.7307 37.2085 78.4427 37.0885C78.1667 36.9685 77.8247 36.9085 77.4167 36.9085C76.5407 36.9085 75.8567 37.2085 75.3647 37.8085C74.8847 38.3965 74.6447 39.2185 74.6447 40.2745C74.6447 41.3305 74.8847 42.1465 75.3647 42.7225C75.8567 43.2985 76.5407 43.5865 77.4167 43.5865C77.8247 43.5865 78.1727 43.5265 78.4607 43.4065C78.7607 43.2865 79.0607 43.1245 79.3607 42.9205C79.4927 42.8365 79.6187 42.7645 79.7387 42.7045C79.8587 42.6445 79.9607 42.6145 80.0447 42.6145C80.1767 42.6145 80.2847 42.6685 80.3687 42.7765C80.4647 42.8845 80.5127 43.0225 80.5127 43.1905C80.5127 43.3465 80.4707 43.4905 80.3867 43.6225C80.3027 43.7425 80.1467 43.8805 79.9187 44.0365C79.5827 44.2645 79.1747 44.4505 78.6947 44.5945C78.2267 44.7265 77.7527 44.7925 77.2727 44.7925ZM89.054 42.6325C89.186 42.6325 89.3 42.6865 89.396 42.7945C89.492 42.9025 89.54 43.0405 89.54 43.2085C89.54 43.5085 89.33 43.7845 88.91 44.0365C88.478 44.2885 88.022 44.4805 87.542 44.6125C87.062 44.7325 86.594 44.7925 86.138 44.7925C84.782 44.7925 83.708 44.3905 82.916 43.5865C82.136 42.7825 81.746 41.6725 81.746 40.2565C81.746 39.3565 81.92 38.5645 82.268 37.8805C82.616 37.1845 83.102 36.6445 83.726 36.2605C84.362 35.8765 85.082 35.6845 85.886 35.6845C87.026 35.6845 87.932 36.0565 88.604 36.8005C89.276 37.5445 89.612 38.5525 89.612 39.8245C89.612 40.0645 89.564 40.2385 89.468 40.3465C89.372 40.4545 89.216 40.5085 89 40.5085H83.204C83.312 42.5725 84.29 43.6045 86.138 43.6045C86.606 43.6045 87.008 43.5445 87.344 43.4245C87.68 43.2925 88.04 43.1185 88.424 42.9025C88.736 42.7225 88.946 42.6325 89.054 42.6325ZM85.904 36.8185C85.136 36.8185 84.518 37.0585 84.05 37.5385C83.594 38.0185 83.324 38.6965 83.24 39.5725H88.334C88.31 38.6845 88.088 38.0065 87.668 37.5385C87.248 37.0585 86.66 36.8185 85.904 36.8185Z" fill="white"/>
<path d="M47.0479 88.5025C47.0479 90.4225 46.3759 92.0425 45.0319 93.3625C43.7119 94.6825 41.9239 95.5105 39.6679 95.8465V98.1145C39.6679 98.6665 39.4999 99.1105 39.1639 99.4465C38.8279 99.8065 38.3839 99.9865 37.8319 99.9865C37.2799 99.9865 36.8359 99.8065 36.4999 99.4465C36.1639 99.1105 35.9959 98.6665 35.9959 98.1145V95.9185C34.6279 95.7985 33.2959 95.5105 31.9999 95.0545C30.7039 94.5985 29.5879 93.9985 28.6519 93.2545C28.3399 93.0385 28.1239 92.7985 28.0039 92.5345C27.8839 92.2705 27.8239 91.9465 27.8239 91.5625C27.8239 91.0585 27.9679 90.6145 28.2559 90.2305C28.5679 89.8465 28.9159 89.6545 29.2999 89.6545C29.5399 89.6545 29.7559 89.7025 29.9479 89.7985C30.1639 89.8705 30.4399 90.0025 30.7759 90.1945C31.8799 90.9145 32.9599 91.4425 34.0159 91.7785C35.0959 92.1145 36.2239 92.2825 37.3999 92.2825C39.0079 92.2825 40.2439 91.9705 41.1079 91.3465C41.9959 90.7225 42.4399 89.8225 42.4399 88.6465C42.4399 87.9505 42.1999 87.3865 41.7199 86.9545C41.2399 86.5225 40.6399 86.1865 39.9199 85.9465C39.1999 85.6825 38.1919 85.3825 36.8959 85.0465C35.0959 84.5905 33.6319 84.1345 32.5039 83.6785C31.3759 83.1985 30.4039 82.4785 29.5879 81.5185C28.7719 80.5585 28.3639 79.2625 28.3639 77.6305C28.3639 75.6865 29.0599 74.0305 30.4519 72.6625C31.8439 71.2945 33.6679 70.4425 35.9239 70.1065V67.8385C35.9239 67.2865 36.0919 66.8425 36.4279 66.5065C36.7639 66.1465 37.2079 65.9665 37.7599 65.9665C38.3119 65.9665 38.7559 66.1465 39.0919 66.5065C39.4279 66.8425 39.5959 67.2865 39.5959 67.8385V70.0705C42.0199 70.3825 44.1079 71.2585 45.8599 72.6985C46.4359 73.1305 46.7239 73.6945 46.7239 74.3905C46.7239 74.8945 46.5679 75.3385 46.2559 75.7225C45.9679 76.1065 45.6199 76.2985 45.2119 76.2985C44.9959 76.2985 44.7799 76.2625 44.5639 76.1905C44.3719 76.1185 44.1079 75.9745 43.7719 75.7585C42.7879 75.0625 41.8519 74.5465 40.9639 74.2105C40.0999 73.8505 39.0679 73.6705 37.8679 73.6705C36.3799 73.6705 35.1919 74.0065 34.3039 74.6785C33.4159 75.3265 32.9719 76.2265 32.9719 77.3785C32.9719 78.1705 33.2239 78.8185 33.7279 79.3225C34.2319 79.8025 34.8679 80.1745 35.6359 80.4385C36.4039 80.7025 37.4479 81.0025 38.7679 81.3385C40.5199 81.7705 41.9479 82.2145 43.0519 82.6705C44.1559 83.1265 45.0919 83.8225 45.8599 84.7585C46.6519 85.6705 47.0479 86.9185 47.0479 88.5025ZM67.1578 87.0985C67.8778 87.0985 68.4178 87.2545 68.7778 87.5665C69.1378 87.8785 69.3178 88.3225 69.3178 88.8985C69.3178 90.0985 68.5978 90.6985 67.1578 90.6985H65.3218V93.5425C65.3218 94.2865 65.1058 94.8625 64.6738 95.2705C64.2658 95.6785 63.7258 95.8825 63.0538 95.8825C62.3818 95.8825 61.8298 95.6785 61.3978 95.2705C60.9898 94.8625 60.7858 94.2865 60.7858 93.5425V90.6985H51.3538C50.7058 90.6985 50.2018 90.5185 49.8418 90.1585C49.4818 89.7745 49.3018 89.3065 49.3018 88.7545C49.3018 88.1785 49.4938 87.6265 49.8778 87.0985L61.0018 71.1145C61.2418 70.7785 61.5418 70.5265 61.9018 70.3585C62.2618 70.1665 62.6338 70.0705 63.0178 70.0705C63.6418 70.0705 64.1818 70.2745 64.6378 70.6825C65.0938 71.0905 65.3218 71.6665 65.3218 72.4105V87.0985H67.1578ZM54.0898 87.0985H60.7858V77.4145L54.0898 87.0985ZM85.5038 82.6345C86.9918 83.0425 88.1318 83.7865 88.9238 84.8665C89.7398 85.9465 90.1478 87.2665 90.1478 88.8265C90.1478 91.0585 89.3078 92.8105 87.6278 94.0825C85.9478 95.3305 83.6198 95.9545 80.6438 95.9545C77.6678 95.9545 75.3398 95.3305 73.6598 94.0825C71.9798 92.8105 71.1398 91.0585 71.1398 88.8265C71.1398 87.2665 71.5478 85.9465 72.3638 84.8665C73.1798 83.7625 74.3318 83.0185 75.8198 82.6345C74.5478 82.1545 73.5518 81.4105 72.8318 80.4025C72.1118 79.3705 71.7518 78.1705 71.7518 76.8025C71.7518 74.6905 72.5438 73.0225 74.1278 71.7985C75.7118 70.5745 77.8838 69.9625 80.6438 69.9625C83.4038 69.9625 85.5758 70.5745 87.1598 71.7985C88.7438 73.0225 89.5358 74.6905 89.5358 76.8025C89.5358 78.1945 89.1758 79.4065 88.4558 80.4385C87.7358 81.4705 86.7518 82.2025 85.5038 82.6345ZM80.6438 73.5985C77.6438 73.5985 76.1438 74.8225 76.1438 77.2705C76.1438 78.4945 76.5158 79.4305 77.2598 80.0785C78.0278 80.7025 79.1558 81.0145 80.6438 81.0145C82.1318 81.0145 83.2478 80.7025 83.9918 80.0785C84.7598 79.4305 85.1438 78.4945 85.1438 77.2705C85.1438 74.8225 83.6438 73.5985 80.6438 73.5985ZM80.6438 92.3185C84.0758 92.3185 85.7918 91.0345 85.7918 88.4665C85.7918 85.8985 84.0758 84.6145 80.6438 84.6145C77.2118 84.6145 75.4958 85.8985 75.4958 88.4665C75.4958 91.0345 77.2118 92.3185 80.6438 92.3185ZM109.466 91.9225C110.906 91.9225 111.626 92.5345 111.626 93.7585C111.626 95.0305 110.906 95.6665 109.466 95.6665H97.2977C95.8337 95.6665 95.1017 95.0305 95.1017 93.7585C95.1017 92.5345 95.8337 91.9225 97.2977 91.9225H101.042V75.5065L97.5857 77.6305C97.2497 77.8225 96.9497 77.9185 96.6857 77.9185C96.1817 77.9185 95.7497 77.7025 95.3897 77.2705C95.0537 76.8385 94.8857 76.3585 94.8857 75.8305C94.8857 75.1345 95.1977 74.5945 95.8217 74.2105L101.402 70.7545C102.122 70.3225 102.806 70.1065 103.454 70.1065C104.126 70.1065 104.666 70.3105 105.074 70.7185C105.482 71.1265 105.686 71.6905 105.686 72.4105V91.9225H109.466ZM131.052 91.9225C132.492 91.9225 133.212 92.5345 133.212 93.7585C133.212 95.0305 132.492 95.6665 131.052 95.6665H118.884C117.42 95.6665 116.688 95.0305 116.688 93.7585C116.688 92.5345 117.42 91.9225 118.884 91.9225H122.628V75.5065L119.172 77.6305C118.836 77.8225 118.536 77.9185 118.272 77.9185C117.768 77.9185 117.336 77.7025 116.976 77.2705C116.64 76.8385 116.472 76.3585 116.472 75.8305C116.472 75.1345 116.784 74.5945 117.408 74.2105L122.988 70.7545C123.708 70.3225 124.392 70.1065 125.04 70.1065C125.712 70.1065 126.252 70.3105 126.66 70.7185C127.068 71.1265 127.272 71.6905 127.272 72.4105V91.9225H131.052ZM138.994 90.4825C139.81 90.4825 140.47 90.7825 140.974 91.3825C141.478 91.9825 141.73 92.8585 141.73 94.0105C141.73 96.2905 140.938 98.2585 139.354 99.9145C139.042 100.227 138.706 100.383 138.346 100.383C137.986 100.383 137.674 100.263 137.41 100.023C137.146 99.7825 137.014 99.4945 137.014 99.1585C137.014 98.8705 137.134 98.5945 137.374 98.3305C138.094 97.5625 138.562 96.6985 138.778 95.7385C138.082 95.6665 137.506 95.4025 137.05 94.9465C136.618 94.4665 136.402 93.8785 136.402 93.1825C136.402 92.4145 136.642 91.7785 137.122 91.2745C137.626 90.7465 138.25 90.4825 138.994 90.4825ZM161.459 91.9225C162.899 91.9225 163.619 92.5345 163.619 93.7585C163.619 95.0305 162.899 95.6665 161.459 95.6665H147.779C147.155 95.6665 146.663 95.4865 146.303 95.1265C145.943 94.7425 145.763 94.2745 145.763 93.7225C145.763 93.0025 146.039 92.3545 146.591 91.7785L154.799 82.9585C155.807 81.8545 156.539 80.8465 156.995 79.9345C157.475 78.9985 157.715 78.0745 157.715 77.1625C157.715 76.0345 157.391 75.1705 156.743 74.5705C156.095 73.9705 155.171 73.6705 153.971 73.6705C152.987 73.6705 152.027 73.8625 151.091 74.2465C150.179 74.6065 149.255 75.1105 148.319 75.7585C148.079 75.9265 147.839 76.0705 147.599 76.1905C147.359 76.2865 147.119 76.3345 146.879 76.3345C146.471 76.3345 146.111 76.1425 145.799 75.7585C145.511 75.3745 145.367 74.9185 145.367 74.3905C145.367 74.0305 145.427 73.7185 145.547 73.4545C145.691 73.1905 145.907 72.9385 146.195 72.6985C147.251 71.8585 148.487 71.1985 149.903 70.7185C151.319 70.2145 152.735 69.9625 154.151 69.9625C156.623 69.9625 158.591 70.5865 160.055 71.8345C161.543 73.0825 162.287 74.7625 162.287 76.8745C162.287 78.3385 161.975 79.7185 161.351 81.0145C160.727 82.2865 159.671 83.7145 158.183 85.2985L151.955 91.9225H161.459ZM183.188 91.9225C184.628 91.9225 185.348 92.5345 185.348 93.7585C185.348 95.0305 184.628 95.6665 183.188 95.6665H171.02C169.556 95.6665 168.824 95.0305 168.824 93.7585C168.824 92.5345 169.556 91.9225 171.02 91.9225H174.764V75.5065L171.308 77.6305C170.972 77.8225 170.672 77.9185 170.408 77.9185C169.904 77.9185 169.472 77.7025 169.112 77.2705C168.776 76.8385 168.608 76.3585 168.608 75.8305C168.608 75.1345 168.92 74.5945 169.544 74.2105L175.124 70.7545C175.844 70.3225 176.528 70.1065 177.176 70.1065C177.848 70.1065 178.388 70.3105 178.796 70.7185C179.204 71.1265 179.408 71.6905 179.408 72.4105V91.9225H183.188Z" fill="white"/>
<path d="M35.2259 159.284C35.2912 159.125 35.4125 159.046 35.5899 159.046C35.7019 159.046 35.7999 159.083 35.8839 159.158C35.9772 159.223 36.0239 159.307 36.0239 159.41C36.0239 159.466 36.0099 159.522 35.9819 159.578L31.9079 168.762C31.8705 168.855 31.8052 168.93 31.7119 168.986C31.6279 169.042 31.5345 169.07 31.4319 169.07C31.3385 169.07 31.2452 169.047 31.1519 169C31.0679 168.944 31.0025 168.865 30.9559 168.762L26.8959 159.578C26.8679 159.522 26.8539 159.471 26.8539 159.424C26.8539 159.312 26.8959 159.223 26.9799 159.158C27.0732 159.083 27.1759 159.046 27.2879 159.046C27.4652 159.046 27.5865 159.125 27.6519 159.284L31.4459 167.866L35.2259 159.284ZM39.2299 162.042C40.0512 162.042 40.6625 162.257 41.0639 162.686C41.4745 163.115 41.6799 163.764 41.6799 164.632V168.622C41.6799 168.753 41.6425 168.86 41.5679 168.944C41.4932 169.019 41.3905 169.056 41.2599 169.056C41.1292 169.056 41.0265 169.019 40.9519 168.944C40.8772 168.86 40.8399 168.753 40.8399 168.622V167.782C40.6439 168.202 40.3592 168.529 39.9859 168.762C39.6125 168.986 39.1832 169.098 38.6979 169.098C38.2592 169.098 37.8579 169.009 37.4939 168.832C37.1392 168.655 36.8545 168.412 36.6399 168.104C36.4252 167.796 36.3179 167.451 36.3179 167.068C36.3085 166.555 36.4345 166.158 36.6959 165.878C36.9572 165.589 37.3912 165.383 37.9979 165.262C38.6045 165.141 39.4539 165.08 40.5459 165.08H40.8399V164.562C40.8399 163.946 40.7139 163.498 40.4619 163.218C40.2099 162.929 39.8132 162.784 39.2719 162.784C38.5812 162.784 37.9232 162.966 37.2979 163.33C37.2699 163.349 37.1952 163.4 37.0739 163.484C36.9619 163.559 36.8639 163.596 36.7799 163.596C36.6865 163.596 36.6072 163.563 36.5419 163.498C36.4859 163.423 36.4579 163.335 36.4579 163.232C36.4579 163.027 36.6212 162.826 36.9479 162.63C37.2745 162.443 37.6385 162.299 38.0399 162.196C38.4412 162.093 38.8379 162.042 39.2299 162.042ZM38.7679 168.356C39.3745 168.356 39.8692 168.151 40.2519 167.74C40.6439 167.329 40.8399 166.807 40.8399 166.172V165.71H40.5739C39.6779 165.71 38.9919 165.747 38.5159 165.822C38.0399 165.897 37.7039 166.027 37.5079 166.214C37.3119 166.391 37.2139 166.653 37.2139 166.998C37.2139 167.39 37.3632 167.717 37.6619 167.978C37.9605 168.23 38.3292 168.356 38.7679 168.356ZM44.345 169.07C44.2143 169.07 44.107 169.033 44.023 168.958C43.9483 168.883 43.911 168.776 43.911 168.636V159.494C43.911 159.354 43.9483 159.247 44.023 159.172C44.107 159.097 44.2143 159.06 44.345 159.06C44.4663 159.06 44.5643 159.097 44.639 159.172C44.723 159.247 44.765 159.354 44.765 159.494V168.636C44.765 168.776 44.723 168.883 44.639 168.958C44.5643 169.033 44.4663 169.07 44.345 169.07ZM47.4485 169.07C47.3179 169.07 47.2105 169.033 47.1265 168.958C47.0519 168.883 47.0145 168.776 47.0145 168.636V162.504C47.0145 162.364 47.0519 162.257 47.1265 162.182C47.2105 162.107 47.3179 162.07 47.4485 162.07C47.5792 162.07 47.6819 162.107 47.7565 162.182C47.8312 162.257 47.8685 162.364 47.8685 162.504V168.636C47.8685 168.776 47.8312 168.883 47.7565 168.958C47.6819 169.033 47.5792 169.07 47.4485 169.07ZM47.4485 160.488C47.2619 160.488 47.1079 160.432 46.9865 160.32C46.8745 160.208 46.8185 160.063 46.8185 159.886C46.8185 159.699 46.8745 159.55 46.9865 159.438C47.1079 159.326 47.2619 159.27 47.4485 159.27C47.6352 159.27 47.7845 159.326 47.8965 159.438C48.0179 159.55 48.0785 159.699 48.0785 159.886C48.0785 160.063 48.0179 160.208 47.8965 160.32C47.7845 160.432 47.6352 160.488 47.4485 160.488ZM55.466 159.06C55.5967 159.06 55.6994 159.102 55.774 159.186C55.858 159.261 55.9 159.363 55.9 159.494V168.622C55.9 168.753 55.858 168.86 55.774 168.944C55.6994 169.019 55.5967 169.056 55.466 169.056C55.3354 169.056 55.2327 169.019 55.158 168.944C55.0834 168.86 55.046 168.753 55.046 168.622V167.698C54.8407 168.155 54.5374 168.505 54.136 168.748C53.7347 168.981 53.2587 169.098 52.708 169.098C52.1107 169.098 51.5834 168.953 51.126 168.664C50.6687 168.365 50.314 167.95 50.062 167.418C49.81 166.877 49.684 166.251 49.684 165.542C49.684 164.842 49.81 164.231 50.062 163.708C50.314 163.176 50.6687 162.765 51.126 162.476C51.5834 162.187 52.1107 162.042 52.708 162.042C53.2587 162.042 53.7347 162.163 54.136 162.406C54.5374 162.639 54.8407 162.985 55.046 163.442V159.494C55.046 159.363 55.0834 159.261 55.158 159.186C55.2327 159.102 55.3354 159.06 55.466 159.06ZM52.82 168.342C53.5294 168.342 54.0754 168.104 54.458 167.628C54.85 167.143 55.046 166.457 55.046 165.57C55.046 164.683 54.8547 163.997 54.472 163.512C54.0894 163.027 53.5434 162.784 52.834 162.784C52.1154 162.784 51.56 163.027 51.168 163.512C50.776 163.988 50.58 164.665 50.58 165.542C50.58 166.429 50.776 167.119 51.168 167.614C51.56 168.099 52.1107 168.342 52.82 168.342ZM64.6808 169.07C64.5501 169.07 64.4474 169.028 64.3728 168.944C64.2981 168.86 64.2608 168.753 64.2608 168.622V159.886H61.0268C60.9054 159.886 60.8074 159.853 60.7328 159.788C60.6674 159.723 60.6348 159.629 60.6348 159.508C60.6348 159.387 60.6674 159.293 60.7328 159.228C60.8074 159.163 60.9054 159.13 61.0268 159.13H68.3348C68.4468 159.13 68.5401 159.167 68.6148 159.242C68.6894 159.307 68.7268 159.396 68.7268 159.508C68.7268 159.62 68.6894 159.713 68.6148 159.788C68.5401 159.853 68.4468 159.886 68.3348 159.886H65.1148V168.622C65.1148 168.753 65.0728 168.86 64.9888 168.944C64.9141 169.028 64.8114 169.07 64.6808 169.07ZM73.9269 162.042C75.5602 162.042 76.3769 162.919 76.3769 164.674V168.636C76.3769 168.767 76.3396 168.874 76.2649 168.958C76.1902 169.033 76.0876 169.07 75.9569 169.07C75.8262 169.07 75.7189 169.033 75.6349 168.958C75.5602 168.874 75.5229 168.767 75.5229 168.636V164.73C75.5229 164.058 75.3876 163.568 75.1169 163.26C74.8462 162.952 74.4169 162.798 73.8289 162.798C73.1569 162.798 72.6156 163.003 72.2049 163.414C71.8036 163.825 71.6029 164.375 71.6029 165.066V168.636C71.6029 168.767 71.5656 168.874 71.4909 168.958C71.4162 169.033 71.3136 169.07 71.1829 169.07C71.0522 169.07 70.9449 169.033 70.8609 168.958C70.7862 168.874 70.7489 168.767 70.7489 168.636V159.494C70.7489 159.363 70.7862 159.261 70.8609 159.186C70.9449 159.102 71.0522 159.06 71.1829 159.06C71.3136 159.06 71.4162 159.102 71.4909 159.186C71.5656 159.261 71.6029 159.363 71.6029 159.494V163.344C71.8176 162.924 72.1256 162.602 72.5269 162.378C72.9376 162.154 73.4042 162.042 73.9269 162.042ZM81.7606 162.07C81.9379 162.061 82.0639 162.084 82.1386 162.14C82.2132 162.196 82.2506 162.289 82.2506 162.42C82.2506 162.653 82.1106 162.784 81.8306 162.812L81.4106 162.854C80.7479 162.919 80.2532 163.157 79.9266 163.568C79.6092 163.979 79.4506 164.459 79.4506 165.01V168.636C79.4506 168.776 79.4132 168.883 79.3386 168.958C79.2639 169.033 79.1612 169.07 79.0306 169.07C78.8999 169.07 78.7926 169.033 78.7086 168.958C78.6339 168.883 78.5966 168.776 78.5966 168.636V162.504C78.5966 162.364 78.6339 162.257 78.7086 162.182C78.7926 162.107 78.8999 162.07 79.0306 162.07C79.1519 162.07 79.2499 162.107 79.3246 162.182C79.3992 162.257 79.4366 162.359 79.4366 162.49V163.4C79.8192 162.597 80.5286 162.159 81.5646 162.084L81.7606 162.07ZM88.4087 162.07C88.5394 162.07 88.642 162.112 88.7167 162.196C88.8007 162.271 88.8427 162.373 88.8427 162.504V168.636C88.8427 168.767 88.8007 168.874 88.7167 168.958C88.642 169.033 88.5394 169.07 88.4087 169.07C88.2874 169.07 88.1894 169.033 88.1147 168.958C88.04 168.874 88.0027 168.767 88.0027 168.636V167.782C87.788 168.211 87.48 168.538 87.0787 168.762C86.6867 168.986 86.2387 169.098 85.7347 169.098C84.932 169.098 84.3254 168.879 83.9147 168.44C83.5134 167.992 83.3127 167.334 83.3127 166.466V162.504C83.3127 162.373 83.35 162.271 83.4247 162.196C83.5087 162.112 83.616 162.07 83.7467 162.07C83.8774 162.07 83.98 162.112 84.0547 162.196C84.1294 162.271 84.1667 162.373 84.1667 162.504V166.41C84.1667 167.073 84.2974 167.563 84.5587 167.88C84.8294 168.188 85.2494 168.342 85.8187 168.342C86.472 168.342 86.9947 168.137 87.3867 167.726C87.788 167.306 87.9887 166.751 87.9887 166.06V162.504C87.9887 162.373 88.026 162.271 88.1007 162.196C88.1754 162.112 88.278 162.07 88.4087 162.07Z" fill="white"/>
<path d="M30.8719 196.126C29.7052 196.126 28.8139 195.697 28.1979 194.838C27.5819 193.97 27.2739 192.71 27.2739 191.058C27.2739 189.415 27.5819 188.165 28.1979 187.306C28.8139 186.438 29.7052 186.004 30.8719 186.004C32.0385 186.004 32.9299 186.438 33.5459 187.306C34.1619 188.165 34.4699 189.415 34.4699 191.058C34.4699 192.701 34.1619 193.956 33.5459 194.824C32.9299 195.692 32.0385 196.126 30.8719 196.126ZM30.8719 194.712C31.5065 194.712 31.9685 194.423 32.2579 193.844C32.5472 193.256 32.6919 192.327 32.6919 191.058C32.6919 189.779 32.5472 188.855 32.2579 188.286C31.9685 187.707 31.5065 187.418 30.8719 187.418C30.2372 187.418 29.7752 187.707 29.4859 188.286C29.1965 188.865 29.0519 189.789 29.0519 191.058C29.0519 192.327 29.1965 193.256 29.4859 193.844C29.7752 194.423 30.2372 194.712 30.8719 194.712ZM40.7784 190.932C41.3664 191.081 41.8144 191.366 42.1224 191.786C42.4397 192.197 42.5984 192.71 42.5984 193.326C42.5984 194.175 42.2857 194.852 41.6604 195.356C41.0351 195.86 40.1904 196.112 39.1264 196.112C38.5197 196.112 37.9364 196.019 37.3764 195.832C36.8164 195.645 36.3404 195.384 35.9484 195.048C35.7337 194.861 35.6264 194.642 35.6264 194.39C35.6264 194.185 35.6824 194.012 35.7944 193.872C35.9157 193.723 36.0557 193.648 36.2144 193.648C36.3077 193.648 36.3917 193.667 36.4664 193.704C36.5411 193.732 36.6437 193.783 36.7744 193.858C37.1664 194.119 37.5397 194.32 37.8944 194.46C38.2491 194.6 38.6364 194.67 39.0564 194.67C39.6724 194.67 40.1297 194.549 40.4284 194.306C40.7271 194.054 40.8764 193.676 40.8764 193.172C40.8764 192.677 40.7177 192.313 40.4004 192.08C40.0924 191.837 39.6117 191.716 38.9584 191.716H38.1604C37.9457 191.716 37.7777 191.646 37.6564 191.506C37.5444 191.357 37.4884 191.189 37.4884 191.002C37.4884 190.806 37.5444 190.638 37.6564 190.498C37.7777 190.358 37.9457 190.288 38.1604 190.288H38.7204C39.9991 190.288 40.6384 189.807 40.6384 188.846C40.6384 188.398 40.5031 188.053 40.2324 187.81C39.9617 187.567 39.5884 187.446 39.1124 187.446C38.4311 187.446 37.7031 187.717 36.9284 188.258C36.7977 188.333 36.6951 188.389 36.6204 188.426C36.5457 188.454 36.4617 188.468 36.3684 188.468C36.2097 188.468 36.0697 188.398 35.9484 188.258C35.8364 188.109 35.7804 187.931 35.7804 187.726C35.7804 187.586 35.8037 187.469 35.8504 187.376C35.9064 187.273 35.9904 187.171 36.1024 187.068C36.4944 186.741 36.9611 186.485 37.5024 186.298C38.0531 186.102 38.6131 186.004 39.1824 186.004C40.1531 186.004 40.9231 186.242 41.4924 186.718C42.0711 187.194 42.3604 187.829 42.3604 188.622C42.3511 189.163 42.2064 189.639 41.9264 190.05C41.6557 190.451 41.2731 190.745 40.7784 190.932ZM44.6929 196.476C44.6369 196.653 44.5483 196.784 44.4269 196.868C44.3056 196.952 44.1703 196.994 44.0209 196.994C43.8343 196.994 43.6663 196.929 43.5169 196.798C43.3769 196.677 43.3069 196.518 43.3069 196.322C43.3069 196.238 43.3209 196.154 43.3489 196.07L46.5969 185.892C46.6529 185.715 46.7416 185.584 46.8629 185.5C46.9843 185.416 47.1196 185.374 47.2689 185.374C47.4556 185.374 47.6189 185.439 47.7589 185.57C47.9083 185.691 47.9829 185.85 47.9829 186.046C47.9829 186.13 47.9689 186.214 47.9409 186.298L44.6929 196.476ZM54.8216 194.544C55.3816 194.544 55.6616 194.782 55.6616 195.258C55.6616 195.753 55.3816 196 54.8216 196H49.5016C49.2589 196 49.0676 195.93 48.9276 195.79C48.7876 195.641 48.7176 195.459 48.7176 195.244C48.7176 194.964 48.8249 194.712 49.0396 194.488L52.2316 191.058C52.6236 190.629 52.9083 190.237 53.0856 189.882C53.2723 189.518 53.3656 189.159 53.3656 188.804C53.3656 188.365 53.2396 188.029 52.9876 187.796C52.7356 187.563 52.3763 187.446 51.9096 187.446C51.5269 187.446 51.1536 187.521 50.7896 187.67C50.4349 187.81 50.0756 188.006 49.7116 188.258C49.6183 188.323 49.5249 188.379 49.4316 188.426C49.3383 188.463 49.2449 188.482 49.1516 188.482C48.9929 188.482 48.8529 188.407 48.7316 188.258C48.6196 188.109 48.5636 187.931 48.5636 187.726C48.5636 187.586 48.5869 187.465 48.6336 187.362C48.6896 187.259 48.7736 187.161 48.8856 187.068C49.2963 186.741 49.7769 186.485 50.3276 186.298C50.8783 186.102 51.4289 186.004 51.9796 186.004C52.9409 186.004 53.7063 186.247 54.2756 186.732C54.8543 187.217 55.1436 187.871 55.1436 188.692C55.1436 189.261 55.0223 189.798 54.7796 190.302C54.5369 190.797 54.1263 191.352 53.5476 191.968L51.1256 194.544H54.8216ZM63.2718 194.544C63.8318 194.544 64.1118 194.782 64.1118 195.258C64.1118 195.753 63.8318 196 63.2718 196H58.5398C57.9705 196 57.6858 195.753 57.6858 195.258C57.6858 194.782 57.9705 194.544 58.5398 194.544H59.9958V188.16L58.6518 188.986C58.5211 189.061 58.4045 189.098 58.3018 189.098C58.1058 189.098 57.9378 189.014 57.7978 188.846C57.6671 188.678 57.6018 188.491 57.6018 188.286C57.6018 188.015 57.7231 187.805 57.9658 187.656L60.1358 186.312C60.4158 186.144 60.6818 186.06 60.9338 186.06C61.1951 186.06 61.4051 186.139 61.5638 186.298C61.7225 186.457 61.8018 186.676 61.8018 186.956V194.544H63.2718Z" fill="white"/>
<path d="M210.552 179.749C209.976 179.749 209.436 179.611 208.932 179.335C208.428 179.047 208.026 178.663 207.726 178.183C207.438 177.691 207.294 177.151 207.294 176.563C207.294 176.011 207.432 175.489 207.708 174.997C207.996 174.505 208.386 174.109 208.878 173.809C209.382 173.509 209.94 173.359 210.552 173.359C211.128 173.359 211.662 173.503 212.154 173.791C212.658 174.067 213.06 174.451 213.36 174.943C213.66 175.423 213.81 175.963 213.81 176.563C213.81 177.139 213.66 177.673 213.36 178.165C213.072 178.645 212.676 179.029 212.172 179.317C211.68 179.605 211.14 179.749 210.552 179.749ZM219.991 179.749C219.415 179.749 218.875 179.611 218.371 179.335C217.867 179.047 217.465 178.663 217.165 178.183C216.877 177.691 216.733 177.151 216.733 176.563C216.733 176.011 216.871 175.489 217.147 174.997C217.435 174.505 217.825 174.109 218.317 173.809C218.821 173.509 219.379 173.359 219.991 173.359C220.567 173.359 221.101 173.503 221.593 173.791C222.097 174.067 222.499 174.451 222.799 174.943C223.099 175.423 223.249 175.963 223.249 176.563C223.249 177.139 223.099 177.673 222.799 178.165C222.511 178.645 222.115 179.029 221.611 179.317C221.119 179.605 220.579 179.749 219.991 179.749ZM229.431 179.749C228.855 179.749 228.315 179.611 227.811 179.335C227.307 179.047 226.905 178.663 226.605 178.183C226.317 177.691 226.173 177.151 226.173 176.563C226.173 176.011 226.311 175.489 226.587 174.997C226.875 174.505 227.265 174.109 227.757 173.809C228.261 173.509 228.819 173.359 229.431 173.359C230.007 173.359 230.541 173.503 231.033 173.791C231.537 174.067 231.939 174.451 232.239 174.943C232.539 175.423 232.689 175.963 232.689 176.563C232.689 177.139 232.539 177.673 232.239 178.165C231.951 178.645 231.555 179.029 231.051 179.317C230.559 179.605 230.019 179.749 229.431 179.749ZM238.87 179.749C238.294 179.749 237.754 179.611 237.25 179.335C236.746 179.047 236.344 178.663 236.044 178.183C235.756 177.691 235.612 177.151 235.612 176.563C235.612 176.011 235.75 175.489 236.026 174.997C236.314 174.505 236.704 174.109 237.196 173.809C237.7 173.509 238.258 173.359 238.87 173.359C239.446 173.359 239.98 173.503 240.472 173.791C240.976 174.067 241.378 174.451 241.678 174.943C241.978 175.423 242.128 175.963 242.128 176.563C242.128 177.139 241.978 177.673 241.678 178.165C241.39 178.645 240.994 179.029 240.49 179.317C239.998 179.605 239.458 179.749 238.87 179.749ZM252.95 179.749C252.374 179.749 251.834 179.611 251.33 179.335C250.826 179.047 250.424 178.663 250.124 178.183C249.836 177.691 249.692 177.151 249.692 176.563C249.692 176.011 249.83 175.489 250.106 174.997C250.394 174.505 250.784 174.109 251.276 173.809C251.78 173.509 252.338 173.359 252.95 173.359C253.526 173.359 254.06 173.503 254.552 173.791C255.056 174.067 255.458 174.451 255.758 174.943C256.058 175.423 256.208 175.963 256.208 176.563C256.208 177.139 256.058 177.673 255.758 178.165C255.47 178.645 255.074 179.029 254.57 179.317C254.078 179.605 253.538 179.749 252.95 179.749ZM262.39 179.749C261.814 179.749 261.274 179.611 260.77 179.335C260.266 179.047 259.864 178.663 259.564 178.183C259.276 177.691 259.132 177.151 259.132 176.563C259.132 176.011 259.27 175.489 259.546 174.997C259.834 174.505 260.224 174.109 260.716 173.809C261.22 173.509 261.778 173.359 262.39 173.359C262.966 173.359 263.5 173.503 263.992 173.791C264.496 174.067 264.898 174.451 265.198 174.943C265.498 175.423 265.648 175.963 265.648 176.563C265.648 177.139 265.498 177.673 265.198 178.165C264.91 178.645 264.514 179.029 264.01 179.317C263.518 179.605 262.978 179.749 262.39 179.749ZM271.829 179.749C271.253 179.749 270.713 179.611 270.209 179.335C269.705 179.047 269.303 178.663 269.003 178.183C268.715 177.691 268.571 177.151 268.571 176.563C268.571 176.011 268.709 175.489 268.985 174.997C269.273 174.505 269.663 174.109 270.155 173.809C270.659 173.509 271.217 173.359 271.829 173.359C272.405 173.359 272.939 173.503 273.431 173.791C273.935 174.067 274.337 174.451 274.637 174.943C274.937 175.423 275.087 175.963 275.087 176.563C275.087 177.139 274.937 177.673 274.637 178.165C274.349 178.645 273.953 179.029 273.449 179.317C272.957 179.605 272.417 179.749 271.829 179.749ZM281.269 179.749C280.693 179.749 280.153 179.611 279.649 179.335C279.145 179.047 278.743 178.663 278.443 178.183C278.155 177.691 278.011 177.151 278.011 176.563C278.011 176.011 278.149 175.489 278.425 174.997C278.713 174.505 279.103 174.109 279.595 173.809C280.099 173.509 280.657 173.359 281.269 173.359C281.845 173.359 282.379 173.503 282.871 173.791C283.375 174.067 283.777 174.451 284.077 174.943C284.377 175.423 284.527 175.963 284.527 176.563C284.527 177.139 284.377 177.673 284.077 178.165C283.789 178.645 283.393 179.029 282.889 179.317C282.397 179.605 281.857 179.749 281.269 179.749ZM295.349 179.749C294.773 179.749 294.233 179.611 293.729 179.335C293.225 179.047 292.823 178.663 292.523 178.183C292.235 177.691 292.091 177.151 292.091 176.563C292.091 176.011 292.229 175.489 292.505 174.997C292.793 174.505 293.183 174.109 293.675 173.809C294.179 173.509 294.737 173.359 295.349 173.359C295.925 173.359 296.459 173.503 296.951 173.791C297.455 174.067 297.857 174.451 298.157 174.943C298.457 175.423 298.607 175.963 298.607 176.563C298.607 177.139 298.457 177.673 298.157 178.165C297.869 178.645 297.473 179.029 296.969 179.317C296.477 179.605 295.937 179.749 295.349 179.749ZM304.788 179.749C304.212 179.749 303.672 179.611 303.168 179.335C302.664 179.047 302.262 178.663 301.962 178.183C301.674 177.691 301.53 177.151 301.53 176.563C301.53 176.011 301.668 175.489 301.944 174.997C302.232 174.505 302.622 174.109 303.114 173.809C303.618 173.509 304.176 173.359 304.788 173.359C305.364 173.359 305.898 173.503 306.39 173.791C306.894 174.067 307.296 174.451 307.596 174.943C307.896 175.423 308.046 175.963 308.046 176.563C308.046 177.139 307.896 177.673 307.596 178.165C307.308 178.645 306.912 179.029 306.408 179.317C305.916 179.605 305.376 179.749 304.788 179.749ZM314.228 179.749C313.652 179.749 313.112 179.611 312.608 179.335C312.104 179.047 311.702 178.663 311.402 178.183C311.114 177.691 310.97 177.151 310.97 176.563C310.97 176.011 311.108 175.489 311.384 174.997C311.672 174.505 312.062 174.109 312.554 173.809C313.058 173.509 313.616 173.359 314.228 173.359C314.804 173.359 315.338 173.503 315.83 173.791C316.334 174.067 316.736 174.451 317.036 174.943C317.336 175.423 317.486 175.963 317.486 176.563C317.486 177.139 317.336 177.673 317.036 178.165C316.748 178.645 316.352 179.029 315.848 179.317C315.356 179.605 314.816 179.749 314.228 179.749ZM323.667 179.749C323.091 179.749 322.551 179.611 322.047 179.335C321.543 179.047 321.141 178.663 320.841 178.183C320.553 177.691 320.409 177.151 320.409 176.563C320.409 176.011 320.547 175.489 320.823 174.997C321.111 174.505 321.501 174.109 321.993 173.809C322.497 173.509 323.055 173.359 323.667 173.359C324.243 173.359 324.777 173.503 325.269 173.791C325.773 174.067 326.175 174.451 326.475 174.943C326.775 175.423 326.925 175.963 326.925 176.563C326.925 177.139 326.775 177.673 326.475 178.165C326.187 178.645 325.791 179.029 325.287 179.317C324.795 179.605 324.255 179.749 323.667 179.749ZM214.692 205.091C214.908 205.091 215.076 205.145 215.196 205.253C215.316 205.361 215.376 205.511 215.376 205.703C215.376 205.907 215.316 206.063 215.196 206.171C215.088 206.279 214.92 206.333 214.692 206.333H208.734C208.506 206.333 208.332 206.279 208.212 206.171C208.104 206.063 208.05 205.907 208.05 205.703C208.05 205.511 208.11 205.361 208.23 205.253C208.35 205.145 208.518 205.091 208.734 205.091H210.966V195.443L209.004 196.721C208.908 196.781 208.812 196.811 208.716 196.811C208.548 196.811 208.398 196.733 208.266 196.577C208.146 196.421 208.086 196.253 208.086 196.073C208.086 195.821 208.182 195.641 208.374 195.533L211.11 193.751C211.314 193.619 211.524 193.553 211.74 193.553C211.944 193.553 212.112 193.619 212.244 193.751C212.376 193.883 212.442 194.069 212.442 194.309V205.091H214.692ZM225.773 205.091C225.989 205.091 226.157 205.145 226.277 205.253C226.397 205.361 226.457 205.511 226.457 205.703C226.457 206.123 226.229 206.333 225.773 206.333H218.717C218.513 206.333 218.345 206.273 218.213 206.153C218.081 206.021 218.015 205.865 218.015 205.685C218.015 205.457 218.099 205.259 218.267 205.091L222.605 200.321C223.205 199.649 223.637 199.049 223.901 198.521C224.177 197.981 224.315 197.441 224.315 196.901C224.315 196.205 224.111 195.671 223.703 195.299C223.307 194.927 222.743 194.741 222.011 194.741C221.435 194.741 220.883 194.849 220.355 195.065C219.827 195.269 219.299 195.587 218.771 196.019C218.591 196.163 218.423 196.235 218.267 196.235C218.135 196.235 218.021 196.175 217.925 196.055C217.829 195.923 217.781 195.767 217.781 195.587C217.781 195.335 217.877 195.131 218.069 194.975C218.561 194.519 219.161 194.159 219.869 193.895C220.577 193.631 221.303 193.499 222.047 193.499C223.187 193.499 224.093 193.799 224.765 194.399C225.449 194.999 225.791 195.809 225.791 196.829C225.791 197.561 225.623 198.263 225.287 198.935C224.963 199.607 224.423 200.357 223.667 201.185L220.067 205.091H225.773ZM234.514 199.817C235.282 200.033 235.864 200.405 236.26 200.933C236.668 201.461 236.872 202.115 236.872 202.895C236.872 203.999 236.5 204.869 235.756 205.505C235.012 206.141 233.998 206.459 232.714 206.459C231.934 206.459 231.184 206.327 230.464 206.063C229.756 205.799 229.156 205.439 228.664 204.983C228.472 204.803 228.376 204.599 228.376 204.371C228.376 204.191 228.424 204.041 228.52 203.921C228.616 203.801 228.73 203.741 228.862 203.741C229.03 203.741 229.198 203.807 229.366 203.939C229.918 204.383 230.458 204.707 230.986 204.911C231.514 205.115 232.084 205.217 232.696 205.217C233.584 205.217 234.256 205.013 234.712 204.605C235.18 204.197 235.414 203.609 235.414 202.841C235.414 201.293 234.442 200.519 232.498 200.519H231.544C231.352 200.519 231.196 200.459 231.076 200.339C230.968 200.207 230.914 200.057 230.914 199.889C230.914 199.721 230.968 199.577 231.076 199.457C231.196 199.337 231.352 199.277 231.544 199.277H232.21C233.146 199.277 233.866 199.073 234.37 198.665C234.874 198.245 235.126 197.645 235.126 196.865C235.126 196.181 234.922 195.659 234.514 195.299C234.106 194.927 233.53 194.741 232.786 194.741C232.222 194.741 231.676 194.849 231.148 195.065C230.62 195.269 230.092 195.587 229.564 196.019C229.396 196.151 229.228 196.217 229.06 196.217C228.928 196.217 228.814 196.157 228.718 196.037C228.622 195.917 228.574 195.767 228.574 195.587C228.574 195.359 228.67 195.155 228.862 194.975C229.354 194.519 229.948 194.159 230.644 193.895C231.352 193.631 232.078 193.499 232.822 193.499C233.974 193.499 234.892 193.793 235.576 194.381C236.26 194.969 236.596 195.761 236.584 196.757C236.572 197.477 236.38 198.107 236.008 198.647C235.648 199.187 235.15 199.577 234.514 199.817ZM247.809 202.355C248.025 202.355 248.193 202.415 248.313 202.535C248.433 202.643 248.493 202.787 248.493 202.967C248.493 203.375 248.265 203.579 247.809 203.579H246.459V205.667C246.459 205.907 246.387 206.093 246.243 206.225C246.111 206.357 245.937 206.423 245.721 206.423C245.505 206.423 245.331 206.357 245.199 206.225C245.067 206.093 245.001 205.907 245.001 205.667V203.579H239.673C239.457 203.579 239.289 203.519 239.169 203.399C239.049 203.279 238.989 203.129 238.989 202.949C238.989 202.781 239.055 202.595 239.187 202.391L245.073 193.877C245.241 193.661 245.457 193.553 245.721 193.553C245.925 193.553 246.099 193.619 246.243 193.751C246.387 193.883 246.459 194.069 246.459 194.309V202.355H247.809ZM240.663 202.355H245.001V196.109L240.663 202.355Z" fill="white"/>
</svg>
