<svg width="32" height="32" viewBox="0 0 32 32" fill="none" xmlns="http://www.w3.org/2000/svg">
<path d="M5.3335 28H26.6668C27.7277 28 28.7451 27.5786 29.4953 26.8284C30.2454 26.0783 30.6668 25.0609 30.6668 24V8C30.6668 6.93913 30.2454 5.92172 29.4953 5.17157C28.7451 4.42143 27.7277 4 26.6668 4H5.3335C4.27263 4 3.25521 4.42143 2.50507 5.17157C1.75492 5.92172 1.3335 6.93913 1.3335 8V24C1.3335 25.0609 1.75492 26.0783 2.50507 26.8284C3.25521 27.5786 4.27263 28 5.3335 28ZM4.00016 8C4.00016 7.64638 4.14064 7.30724 4.39069 7.05719C4.64074 6.80714 4.97987 6.66667 5.3335 6.66667H26.6668C27.0205 6.66667 27.3596 6.80714 27.6096 7.05719C27.8597 7.30724 28.0002 7.64638 28.0002 8V24C28.0002 24.3536 27.8597 24.6928 27.6096 24.9428C27.3596 25.1929 27.0205 25.3333 26.6668 25.3333H5.3335C4.97987 25.3333 4.64074 25.1929 4.39069 24.9428C4.14064 24.6928 4.00016 24.3536 4.00016 24V8Z" fill="#428777"/>
<path d="M7.99984 22.6667H11.9998C12.3535 22.6667 12.6926 22.5262 12.9426 22.2762C13.1927 22.0261 13.3332 21.687 13.3332 21.3333C13.3332 20.9797 13.1927 20.6406 12.9426 20.3905C12.6926 20.1405 12.3535 20 11.9998 20H7.99984C7.64622 20 7.30708 20.1405 7.05703 20.3905C6.80698 20.6406 6.6665 20.9797 6.6665 21.3333C6.6665 21.687 6.80698 22.0261 7.05703 22.2762C7.30708 22.5262 7.64622 22.6667 7.99984 22.6667Z" fill="#428777"/>
<path d="M7.99984 18.6667H15.9999C16.3535 18.6667 16.6926 18.5262 16.9427 18.2762C17.1927 18.0261 17.3332 17.687 17.3332 17.3333C17.3332 16.9797 17.1927 16.6406 16.9427 16.3905C16.6926 16.1405 16.3535 16 15.9999 16H7.99984C7.64622 16 7.30708 16.1405 7.05703 16.3905C6.80698 16.6406 6.6665 16.9797 6.6665 17.3333C6.6665 17.687 6.80698 18.0261 7.05703 18.2762C7.30708 18.5262 7.64622 18.6667 7.99984 18.6667Z" fill="#428777"/>
</svg>
