<svg width="32" height="40" viewBox="0 0 32 40" fill="none" xmlns="http://www.w3.org/2000/svg">
<path d="M31.05 0.299995C30.46 -0.0659983 29.7259 -0.0979666 29.104 0.209997L22.1441 3.69397L17.1083 0.335995C16.4363 -0.112029 15.5623 -0.112029 14.8903 0.335995L9.85635 3.69397L2.89647 0.209997C2.27651 -0.0979666 1.54049 -0.0659983 0.950535 0.299995C0.360482 0.66402 0.000488281 1.30601 0.000488281 1.99993V37.9993C0.000488281 38.6933 0.360482 39.3353 0.950441 39.7033C1.2704 39.8993 1.63443 39.9992 2.00042 39.9992C2.30445 39.9992 2.61438 39.9292 2.89441 39.7873L9.85429 36.3073L14.8902 39.6633C15.5622 40.1113 16.4362 40.1113 17.1082 39.6633L22.1421 36.3073L29.1039 39.7873C29.7259 40.0993 30.4599 40.0652 31.0499 39.7033C31.6398 39.3353 31.9998 38.6933 31.9998 37.9993V1.99993C32 1.30601 31.64 0.66402 31.05 0.299995ZM28 34.7634L22.8941 32.2094C22.2502 31.8895 21.4841 31.9374 20.8902 32.3354L16.0002 35.5953L11.1103 32.3354C10.7763 32.1134 10.3884 31.9994 10.0003 31.9994C9.69632 31.9994 9.38639 32.0694 9.10636 32.2094L4.00045 34.7634V5.23791L9.10636 7.7859C9.74638 8.10792 10.5123 8.05992 11.1103 7.66187L16.0002 4.40392L20.8902 7.66384C21.4861 8.0618 22.2521 8.1098 22.8941 7.78787L28 5.23791V34.7634Z" fill="#428777"/>
<path d="M18.0004 9.99992H14.0005V12.0999C11.7205 12.5659 10.0005 14.5838 10.0005 16.9998C10.0005 19.7558 12.2425 21.9997 15.0004 21.9997H17.0003C17.5503 21.9997 18.0003 22.4477 18.0003 22.9997C18.0003 23.5517 17.5504 23.9997 17.0005 23.9997H10.0006V27.9996H14.0005V29.9995H18.0005V27.8996C20.2805 27.4356 22.0005 25.4156 22.0005 22.9996C22.0005 20.2437 19.7585 17.9998 17.0006 17.9998H15.0005C14.4504 17.9998 14.0005 17.5517 14.0005 16.9997C14.0005 16.4477 14.4504 15.9997 15.0005 15.9997H22.0004V11.9999H18.0004V9.99992Z" fill="#428777"/>
</svg>
