<svg width="32" height="32" viewBox="0 0 32 32" fill="none" xmlns="http://www.w3.org/2000/svg">
<path d="M18.6666 9.33334H7.99996C7.64634 9.33334 7.3072 9.47382 7.05715 9.72387C6.8071 9.97392 6.66663 10.3131 6.66663 10.6667C6.66663 11.0203 6.8071 11.3594 7.05715 11.6095C7.3072 11.8595 7.64634 12 7.99996 12H18.6666C19.0202 12 19.3594 11.8595 19.6094 11.6095C19.8595 11.3594 20 11.0203 20 10.6667C20 10.3131 19.8595 9.97392 19.6094 9.72387C19.3594 9.47382 19.0202 9.33334 18.6666 9.33334Z" fill="#9BABC5"/>
<path d="M18.6666 14.6667H7.99996C7.64634 14.6667 7.3072 14.8071 7.05715 15.0572C6.8071 15.3072 6.66663 15.6464 6.66663 16C6.66663 16.3536 6.8071 16.6928 7.05715 16.9428C7.3072 17.1929 7.64634 17.3333 7.99996 17.3333H18.6666C19.0202 17.3333 19.3594 17.1929 19.6094 16.9428C19.8595 16.6928 20 16.3536 20 16C20 15.6464 19.8595 15.3072 19.6094 15.0572C19.3594 14.8071 19.0202 14.6667 18.6666 14.6667Z" fill="#9BABC5"/>
<path d="M13.3333 20H7.99996C7.64634 20 7.3072 20.1405 7.05715 20.3905C6.8071 20.6406 6.66663 20.9797 6.66663 21.3333C6.66663 21.687 6.8071 22.0261 7.05715 22.2762C7.3072 22.5262 7.64634 22.6667 7.99996 22.6667H13.3333C13.6869 22.6667 14.0261 22.5262 14.2761 22.2762C14.5262 22.0261 14.6666 21.687 14.6666 21.3333C14.6666 20.9797 14.5262 20.6406 14.2761 20.3905C14.0261 20.1405 13.6869 20 13.3333 20Z" fill="#9BABC5"/>
<path d="M29.3334 14.6667H25.3334V5.33334C25.3334 4.27248 24.9119 3.25506 24.1618 2.50492C23.4117 1.75477 22.3942 1.33334 21.3334 1.33334H5.33337C4.27251 1.33334 3.25509 1.75477 2.50495 2.50492C1.7548 3.25506 1.33337 4.27248 1.33337 5.33334V26.6667C1.33337 27.7275 1.7548 28.745 2.50495 29.4951C3.25509 30.2453 4.27251 30.6667 5.33337 30.6667H26.6667C27.7276 30.6667 28.745 30.2453 29.4951 29.4951C30.2453 28.745 30.6667 27.7275 30.6667 26.6667V16C30.6667 15.6464 30.5262 15.3073 30.2762 15.0572C30.0261 14.8072 29.687 14.6667 29.3334 14.6667ZM22.6667 28H5.33337C4.97975 28 4.64061 27.8595 4.39056 27.6095C4.14052 27.3594 4.00004 27.0203 4.00004 26.6667V5.33334C4.00004 4.97972 4.14052 4.64058 4.39056 4.39053C4.64061 4.14049 4.97975 4.00001 5.33337 4.00001H21.3334C21.687 4.00001 22.0261 4.14049 22.2762 4.39053C22.5262 4.64058 22.6667 4.97972 22.6667 5.33334V28ZM28 26.6667C28 27.0203 27.8596 27.3594 27.6095 27.6095C27.3595 27.8595 27.0203 28 26.6667 28H25.3334V17.3333H28V26.6667Z" fill="#9BABC5"/>
</svg>
