<svg width="32" height="32" viewBox="0 0 32 32" fill="none" xmlns="http://www.w3.org/2000/svg">
<path d="M29.3334 14.6667H18.6667C18.3131 14.6667 17.9739 14.5262 17.7239 14.2762C17.4739 14.0261 17.3334 13.687 17.3334 13.3333V2.66668C17.3334 2.31306 17.4739 1.97392 17.7239 1.72387C17.9739 1.47382 18.3131 1.33335 18.6667 1.33335H29.3334C29.687 1.33335 30.0261 1.47382 30.2762 1.72387C30.5262 1.97392 30.6667 2.31306 30.6667 2.66668V13.3333C30.6667 13.687 30.5262 14.0261 30.2762 14.2762C30.0261 14.5262 29.687 14.6667 29.3334 14.6667ZM20 12H28V4.00001H20V12Z" fill="#9BABC5"/>
<path d="M24 30.6667C22.6815 30.6667 21.3926 30.2757 20.2962 29.5432C19.1999 28.8106 18.3454 27.7694 17.8408 26.5513C17.3363 25.3331 17.2042 23.9926 17.4615 22.6994C17.7187 21.4062 18.3536 20.2183 19.286 19.286C20.2183 18.3536 21.4062 17.7187 22.6994 17.4615C23.9926 17.2042 25.3331 17.3362 26.5513 17.8408C27.7694 18.3454 28.8106 19.1999 29.5432 20.2962C30.2757 21.3926 30.6667 22.6815 30.6667 24C30.6646 25.7675 29.9615 27.462 28.7118 28.7117C27.462 29.9615 25.7675 30.6646 24 30.6667ZM24 20C23.2089 20 22.4356 20.2346 21.7778 20.6742C21.12 21.1137 20.6073 21.7384 20.3045 22.4693C20.0018 23.2002 19.9226 24.0045 20.0769 24.7804C20.2312 25.5563 20.6122 26.269 21.1716 26.8285C21.731 27.3879 22.4438 27.7688 23.2197 27.9232C23.9956 28.0775 24.7999 27.9983 25.5308 27.6955C26.2617 27.3928 26.8864 26.8801 27.3259 26.2223C27.7654 25.5645 28 24.7912 28 24C28 22.9392 27.5786 21.9217 26.8285 21.1716C26.0783 20.4215 25.0609 20 24 20Z" fill="#9BABC5"/>
<path d="M13.3334 17.3333H2.66671C2.31309 17.3333 1.97395 17.4738 1.7239 17.7238C1.47385 17.9739 1.33337 18.313 1.33337 18.6666V29.3333C1.33337 29.6869 1.47385 30.0261 1.7239 30.2761C1.97395 30.5262 2.31309 30.6666 2.66671 30.6666H13.3334C13.687 30.6666 14.0261 30.5262 14.2762 30.2761C14.5262 30.0261 14.6667 29.6869 14.6667 29.3333V18.6666C14.6667 18.313 14.5262 17.9739 14.2762 17.7238C14.0261 17.4738 13.687 17.3333 13.3334 17.3333ZM12 28H4.00004V20H12V28Z" fill="#9BABC5"/>
<path d="M13.3334 14.6667H2.66671C2.31309 14.6667 1.97395 14.5262 1.7239 14.2762C1.47385 14.0261 1.33337 13.687 1.33337 13.3333V2.66668C1.33337 2.31306 1.47385 1.97392 1.7239 1.72387C1.97395 1.47382 2.31309 1.33335 2.66671 1.33335H13.3334C13.687 1.33335 14.0261 1.47382 14.2762 1.72387C14.5262 1.97392 14.6667 2.31306 14.6667 2.66668V13.3333C14.6667 13.687 14.5262 14.0261 14.2762 14.2762C14.0261 14.5262 13.687 14.6667 13.3334 14.6667ZM4.00004 12H12V4.00001H4.00004V12Z" fill="#9BABC5"/>
</svg>
