<svg width="24" height="25" viewBox="0 0 24 25" fill="none" xmlns="http://www.w3.org/2000/svg">
<g clip-path="url(#clip0_18_2289)">
<path d="M18 2.5C20.206 2.5 22 4.294 22 6.5V18.5C22 20.706 20.206 22.5 18 22.5H6C3.794 22.5 2 20.706 2 18.5V6.5C2 4.294 3.794 2.5 6 2.5H18ZM18 0.5H6C2.686 0.5 0 3.186 0 6.5V18.5C0 21.814 2.686 24.5 6 24.5H18C21.314 24.5 24 21.814 24 18.5V6.5C24 3.186 21.314 0.5 18 0.5Z" fill="white"/>
<path d="M12 18.5C11.448 18.5 11 18.053 11 17.5V7.5C11 6.948 11.448 6.5 12 6.5C12.552 6.5 13 6.948 13 7.5V17.5C13 18.053 12.552 18.5 12 18.5Z" fill="white"/>
<path d="M6 12.5C6 11.948 6.447 11.5 7 11.5H17C17.552 11.5 18 11.948 18 12.5C18 13.052 17.552 13.5 17 13.5H7C6.447 13.5 6 13.052 6 12.5Z" fill="white"/>
</g>
<defs>
<clipPath id="clip0_18_2289">
<rect width="24" height="24" fill="white" transform="translate(0 0.5)"/>
</clipPath>
</defs>
</svg>
