<svg width="32" height="32" viewBox="0 0 32 32" fill="none" xmlns="http://www.w3.org/2000/svg">
<path d="M31.4142 8.82911L25.9996 14.2438C25.609 14.6344 25.0972 14.8296 24.5853 14.8296C24.0734 14.8296 23.5616 14.6344 23.1711 14.2438C22.3901 13.4627 22.3901 12.1964 23.1711 11.4154L25.1716 9.41492H4.20312C3.09856 9.41492 2.20312 8.51949 2.20312 7.41492C2.20312 6.31036 3.09856 5.41492 4.20312 5.41492H25.1716L23.1711 3.41449C22.3901 2.63342 22.3901 1.36711 23.1711 0.586049C23.9522 -0.195014 25.2184 -0.195014 25.9996 0.586049L31.4142 6.00074C32.1952 6.78174 32.1952 8.04811 31.4142 8.82911ZM26.7031 22.5855H6.82844L8.82894 20.5851C9.60994 19.804 9.60994 18.5377 8.82894 17.7567C8.04781 16.9756 6.78156 16.9756 6.00044 17.7567L0.58575 23.1714C-0.19525 23.9524 -0.19525 25.2187 0.58575 25.9998L6.00044 31.4145C6.391 31.805 6.90281 32.0003 7.41469 32.0003C7.92656 32.0003 8.43838 31.805 8.82894 31.4145C9.60994 30.6334 9.60994 29.3671 8.82894 28.586L6.82844 26.5856H26.7031C27.8077 26.5856 28.7031 25.6902 28.7031 24.5856C28.7031 23.481 27.8077 22.5855 26.7031 22.5855Z" fill="#428777"/>
</svg>
